G04*
G04 #@! TF.GenerationSoftware,Altium Limited,Altium Designer,22.1.2 (22)*
G04*
G04 Layer_Color=8421504*
%FSLAX25Y25*%
%MOIN*%
G70*
G04*
G04 #@! TF.SameCoordinates,32997ABC-C250-4A50-851A-9512557143E5*
G04*
G04*
G04 #@! TF.FilePolarity,Positive*
G04*
G01*
G75*
%ADD17R,0.02362X0.05118*%
%ADD18R,0.03000X0.03000*%
%ADD19R,0.02165X0.02362*%
%ADD20R,0.02362X0.02165*%
%ADD21R,0.04724X0.06299*%
%ADD22R,0.01181X0.03543*%
%ADD23R,0.03000X0.03000*%
%ADD24R,0.05118X0.02362*%
%ADD25R,0.09449X0.08661*%
%ADD26O,0.07087X0.01181*%
%ADD27O,0.01181X0.07087*%
G04:AMPARAMS|DCode=28|XSize=23.62mil|YSize=21.65mil|CornerRadius=0mil|HoleSize=0mil|Usage=FLASHONLY|Rotation=45.000|XOffset=0mil|YOffset=0mil|HoleType=Round|Shape=Rectangle|*
%AMROTATEDRECTD28*
4,1,4,-0.00070,-0.01601,-0.01601,-0.00070,0.00070,0.01601,0.01601,0.00070,-0.00070,-0.01601,0.0*
%
%ADD28ROTATEDRECTD28*%

G04:AMPARAMS|DCode=29|XSize=23.62mil|YSize=21.65mil|CornerRadius=0mil|HoleSize=0mil|Usage=FLASHONLY|Rotation=135.000|XOffset=0mil|YOffset=0mil|HoleType=Round|Shape=Rectangle|*
%AMROTATEDRECTD29*
4,1,4,0.01601,-0.00070,0.00070,-0.01601,-0.01601,0.00070,-0.00070,0.01601,0.01601,-0.00070,0.0*
%
%ADD29ROTATEDRECTD29*%

%ADD30R,0.03150X0.03937*%
G04:AMPARAMS|DCode=31|XSize=39.37mil|YSize=31.5mil|CornerRadius=0mil|HoleSize=0mil|Usage=FLASHONLY|Rotation=90.000|XOffset=0mil|YOffset=0mil|HoleType=Round|Shape=Octagon|*
%AMOCTAGOND31*
4,1,8,0.00787,0.01968,-0.00787,0.01968,-0.01575,0.01181,-0.01575,-0.01181,-0.00787,-0.01968,0.00787,-0.01968,0.01575,-0.01181,0.01575,0.01181,0.00787,0.01968,0.0*
%
%ADD31OCTAGOND31*%

%ADD32R,0.05906X0.05256*%
%ADD33R,0.05256X0.05906*%
%ADD34O,0.13780X0.04016*%
%ADD35R,0.13780X0.04016*%
%ADD36R,0.04528X0.01181*%
%ADD37R,0.04520X0.01180*%
D17*
X40157Y53347D02*
D03*
X43898Y45079D02*
D03*
X36417D02*
D03*
D18*
X48031Y39221D02*
D03*
Y33221D02*
D03*
X129134Y10086D02*
D03*
Y4086D02*
D03*
X129134Y16685D02*
D03*
Y22685D02*
D03*
D19*
X119685Y18602D02*
D03*
Y22343D02*
D03*
X69685Y4035D02*
D03*
Y7776D02*
D03*
X54331Y55413D02*
D03*
Y51673D02*
D03*
X74016Y4035D02*
D03*
Y7776D02*
D03*
X49606Y51673D02*
D03*
Y55413D02*
D03*
X48031Y22539D02*
D03*
Y26280D02*
D03*
X119685Y31791D02*
D03*
Y28051D02*
D03*
D20*
X123917Y12992D02*
D03*
X120177D02*
D03*
X113878Y36614D02*
D03*
X117618D02*
D03*
X42028Y21260D02*
D03*
X38287D02*
D03*
X29429Y54331D02*
D03*
X25689D02*
D03*
X29429Y4724D02*
D03*
X25689D02*
D03*
X17028D02*
D03*
X20768D02*
D03*
X88808Y53678D02*
D03*
X92548D02*
D03*
X38287Y30709D02*
D03*
X42028D02*
D03*
X17028Y54331D02*
D03*
X20768D02*
D03*
X38287Y25984D02*
D03*
X42028D02*
D03*
X38287Y35433D02*
D03*
X42028D02*
D03*
X11713Y54331D02*
D03*
X7972D02*
D03*
X11713Y4724D02*
D03*
X7972D02*
D03*
X96555Y36614D02*
D03*
X100295D02*
D03*
X105217D02*
D03*
X108957D02*
D03*
X122146D02*
D03*
X125886D02*
D03*
X69784Y12992D02*
D03*
X73524D02*
D03*
X97342Y13386D02*
D03*
X101083D02*
D03*
Y19291D02*
D03*
X97342D02*
D03*
X88681Y13386D02*
D03*
X92421D02*
D03*
X101083Y24409D02*
D03*
X97342D02*
D03*
X80020Y13386D02*
D03*
X83760D02*
D03*
D21*
X125985Y50886D02*
D03*
X97637D02*
D03*
D22*
X104920Y43603D02*
D03*
X106889D02*
D03*
X108858D02*
D03*
X110827D02*
D03*
X112794D02*
D03*
X114763D02*
D03*
X116732D02*
D03*
X118701D02*
D03*
D23*
X138826Y55590D02*
D03*
X132826D02*
D03*
D24*
X63634Y4260D02*
D03*
Y11740D02*
D03*
X55366Y8000D02*
D03*
D25*
X110236Y15157D02*
D03*
Y28937D02*
D03*
D26*
X87598Y25787D02*
D03*
Y27756D02*
D03*
Y29724D02*
D03*
Y31693D02*
D03*
Y33661D02*
D03*
Y35630D02*
D03*
Y37598D02*
D03*
Y39567D02*
D03*
Y41535D02*
D03*
Y43504D02*
D03*
Y45472D02*
D03*
Y47441D02*
D03*
X55709D02*
D03*
Y45472D02*
D03*
Y43504D02*
D03*
Y41535D02*
D03*
Y39567D02*
D03*
Y37598D02*
D03*
Y35630D02*
D03*
Y33661D02*
D03*
Y31693D02*
D03*
Y29724D02*
D03*
Y27756D02*
D03*
Y25787D02*
D03*
D27*
X82480Y52559D02*
D03*
X80512D02*
D03*
X78543D02*
D03*
X76575D02*
D03*
X74606D02*
D03*
X72638D02*
D03*
X70669D02*
D03*
X68701D02*
D03*
X66732D02*
D03*
X64764D02*
D03*
X62795D02*
D03*
X60827D02*
D03*
Y20669D02*
D03*
X62795D02*
D03*
X64764D02*
D03*
X66732D02*
D03*
X68701D02*
D03*
X70669D02*
D03*
X72638D02*
D03*
X74606D02*
D03*
X76575D02*
D03*
X78543D02*
D03*
X80512D02*
D03*
X82480D02*
D03*
D28*
X87260Y18363D02*
D03*
X89905Y21007D02*
D03*
D29*
X56822Y19178D02*
D03*
X54178Y21822D02*
D03*
D30*
X48031Y4724D02*
D03*
D31*
Y15748D02*
D03*
D32*
X40157Y14734D02*
D03*
Y5738D02*
D03*
D33*
X119459Y5512D02*
D03*
X110463D02*
D03*
D34*
X149606Y9528D02*
D03*
Y29528D02*
D03*
Y39528D02*
D03*
Y19528D02*
D03*
D35*
Y49528D02*
D03*
D36*
X29428Y16339D02*
D03*
Y17520D02*
D03*
X29428Y19488D02*
D03*
Y20670D02*
D03*
X29428Y22638D02*
D03*
Y26575D02*
D03*
X29422Y28544D02*
D03*
X29428Y30512D02*
D03*
X29421Y32481D02*
D03*
X29430Y34449D02*
D03*
X29412Y38386D02*
D03*
Y39567D02*
D03*
X29422Y41536D02*
D03*
Y42717D02*
D03*
D37*
X29428Y24607D02*
D03*
X29428Y36417D02*
D03*
M02*
