G04*
G04 #@! TF.GenerationSoftware,Altium Limited,Altium Designer,22.1.2 (22)*
G04*
G04 Layer_Color=32896*
%FSLAX25Y25*%
%MOIN*%
G70*
G04*
G04 #@! TF.SameCoordinates,32997ABC-C250-4A50-851A-9512557143E5*
G04*
G04*
G04 #@! TF.FilePolarity,Positive*
G04*
G01*
G75*
%ADD13C,0.00600*%
%ADD16C,0.00800*%
%ADD66C,0.01500*%
%ADD74C,0.01200*%
D13*
X188728Y40905D02*
X190106Y39528D01*
X188189Y40905D02*
X188728D01*
Y38150D02*
X190106Y39528D01*
X188189Y38150D02*
X188728D01*
X157606Y42528D02*
Y44528D01*
Y42528D02*
X159606D01*
Y41528D02*
Y42528D01*
Y36528D02*
Y41528D01*
X157606Y36528D02*
X159606D01*
X157606Y34528D02*
Y36528D01*
X167606Y34528D02*
Y44528D01*
Y38150D02*
X188189D01*
X167606Y40905D02*
X188189D01*
X167606Y10905D02*
X188189D01*
X167606Y8150D02*
X188189D01*
X157606Y4528D02*
X167606D01*
Y14528D01*
X157606Y4528D02*
Y6528D01*
X159606D01*
Y11528D01*
Y12528D01*
X157606D02*
X159606D01*
X157606D02*
Y14528D01*
X188189Y8150D02*
X188728D01*
X190106Y9528D01*
X188189Y10905D02*
X188728D01*
X190106Y9528D01*
X188728Y20906D02*
X190106Y19528D01*
X188189Y20906D02*
X188728D01*
Y18150D02*
X190106Y19528D01*
X188189Y18150D02*
X188728D01*
X157606Y22528D02*
Y24528D01*
Y22528D02*
X159606D01*
Y21528D02*
Y22528D01*
Y16528D02*
Y21528D01*
X157606Y16528D02*
X159606D01*
X157606Y14528D02*
Y16528D01*
X167606Y14528D02*
Y24528D01*
Y18150D02*
X188189D01*
X167606Y20906D02*
X188189D01*
X167606Y30906D02*
X188189D01*
X167606Y28150D02*
X188189D01*
X167606Y24528D02*
Y34528D01*
X157606Y24528D02*
Y26528D01*
X159606D01*
Y31528D01*
Y32528D01*
X157606D02*
X159606D01*
X157606D02*
Y34528D01*
X188189Y28150D02*
X188728D01*
X190106Y29528D01*
X188189Y30906D02*
X188728D01*
X190106Y29528D01*
X167606Y50906D02*
X188189D01*
X167606Y48150D02*
X188189D01*
X167606Y44528D02*
Y54528D01*
X157606D02*
X167606D01*
X157606Y44528D02*
Y46528D01*
X159606D01*
Y51528D01*
Y52528D01*
X157606D02*
X159606D01*
X157606D02*
Y54528D01*
X188189Y48150D02*
X188728D01*
X190106Y49528D01*
X188189Y50906D02*
X188728D01*
X190106Y49528D01*
D16*
X140932Y51927D02*
X137733D01*
X139333D01*
Y47128D01*
X132935Y51127D02*
X133735Y51927D01*
X135334D01*
X136134Y51127D01*
Y47928D01*
X135334Y47128D01*
X133735D01*
X132935Y47928D01*
X131335Y51927D02*
Y47128D01*
Y48728D01*
X128136Y51927D01*
X130536Y49528D01*
X128136Y47128D01*
X126537D02*
X123338Y50327D01*
X118540Y51127D02*
X119339Y51927D01*
X120939D01*
X121739Y51127D01*
Y47928D01*
X120939Y47128D01*
X119339D01*
X118540Y47928D01*
X116940Y51927D02*
Y47128D01*
Y48728D01*
X113741Y51927D01*
X116140Y49528D01*
X113741Y47128D01*
X137733Y41127D02*
X138533Y41927D01*
X140133D01*
X140932Y41127D01*
Y37928D01*
X140133Y37128D01*
X138533D01*
X137733Y37928D01*
Y39528D01*
X139333D01*
X136134Y37128D02*
Y41927D01*
X132935Y37128D01*
Y41927D01*
X131335D02*
Y37128D01*
X128936D01*
X128136Y37928D01*
Y41127D01*
X128936Y41927D01*
X131335D01*
X140932Y31927D02*
X137733D01*
X139333D01*
Y27128D01*
X136134D02*
Y31927D01*
X134534Y30327D01*
X132935Y31927D01*
Y27128D01*
X128136Y31127D02*
X128936Y31927D01*
X130536D01*
X131335Y31127D01*
Y30327D01*
X130536Y29528D01*
X128936D01*
X128136Y28728D01*
Y27928D01*
X128936Y27128D01*
X130536D01*
X131335Y27928D01*
X126537Y27128D02*
X123338Y30327D01*
X121739Y31927D02*
X120139D01*
X120939D01*
Y27128D01*
X121739D01*
X120139D01*
X115341Y31927D02*
X116940D01*
X117740Y31127D01*
Y27928D01*
X116940Y27128D01*
X115341D01*
X114541Y27928D01*
Y31127D01*
X115341Y31927D01*
X140932Y21127D02*
X140133Y21927D01*
X138533D01*
X137733Y21127D01*
Y20327D01*
X138533Y19528D01*
X139333D01*
X138533D01*
X137733Y18728D01*
Y17928D01*
X138533Y17128D01*
X140133D01*
X140932Y17928D01*
X136134Y21927D02*
Y18728D01*
X134534Y17128D01*
X132935Y18728D01*
Y21927D01*
X131335Y21127D02*
X130536Y21927D01*
X128936D01*
X128136Y21127D01*
Y20327D01*
X128936Y19528D01*
X129736D01*
X128936D01*
X128136Y18728D01*
Y17928D01*
X128936Y17128D01*
X130536D01*
X131335Y17928D01*
X137733Y11927D02*
X140932D01*
Y9528D01*
X139333Y10327D01*
X138533D01*
X137733Y9528D01*
Y7928D01*
X138533Y7128D01*
X140133D01*
X140932Y7928D01*
X136134Y11927D02*
Y8728D01*
X134534Y7128D01*
X132935Y8728D01*
Y11927D01*
D66*
X102938Y39921D02*
X103795Y40778D01*
X105080Y41207D01*
X106794D01*
X108080Y40778D01*
X108937Y39921D01*
Y39064D01*
X108508Y38207D01*
X108080Y37779D01*
X107223Y37350D01*
X104652Y36494D01*
X103795Y36065D01*
X103366Y35636D01*
X102938Y34780D01*
Y33494D01*
X103795Y32637D01*
X105080Y32209D01*
X106794D01*
X108080Y32637D01*
X108937Y33494D01*
X97925Y41207D02*
Y32209D01*
X100924Y41207D02*
X94925D01*
X93854Y36065D02*
X86141D01*
X83485Y41207D02*
Y32209D01*
X78343D01*
X76501Y41207D02*
X76072Y40778D01*
X75644Y41207D01*
X76072Y41635D01*
X76501Y41207D01*
X76072Y38207D02*
Y32209D01*
X74058Y38207D02*
Y32209D01*
Y36494D02*
X72773Y37779D01*
X71916Y38207D01*
X70631D01*
X69774Y37779D01*
X69345Y36494D01*
Y32209D01*
X66988Y41207D02*
Y32209D01*
X62704Y38207D02*
X66988Y33923D01*
X65275Y35636D02*
X62275Y32209D01*
X53791Y41207D02*
X50363Y32209D01*
X46936Y41207D02*
X50363Y32209D01*
X45350Y39064D02*
Y39493D01*
X44922Y40350D01*
X44493Y40778D01*
X43636Y41207D01*
X41922D01*
X41065Y40778D01*
X40637Y40350D01*
X40208Y39493D01*
Y38636D01*
X40637Y37779D01*
X41494Y36494D01*
X45779Y32209D01*
X39780D01*
X37338Y33066D02*
X37766Y32637D01*
X37338Y32209D01*
X36909Y32637D01*
X37338Y33066D01*
X34938Y39493D02*
X34081Y39921D01*
X32796Y41207D01*
Y32209D01*
D74*
X110372Y25962D02*
Y18764D01*
Y25962D02*
X107630Y18764D01*
X104887Y25962D02*
X107630Y18764D01*
X104887Y25962D02*
Y18764D01*
X98717Y23563D02*
Y18764D01*
Y22534D02*
X99403Y23220D01*
X100088Y23563D01*
X101117D01*
X101802Y23220D01*
X102488Y22534D01*
X102831Y21506D01*
Y20820D01*
X102488Y19792D01*
X101802Y19107D01*
X101117Y18764D01*
X100088D01*
X99403Y19107D01*
X98717Y19792D01*
X96798Y23563D02*
X93027Y18764D01*
Y23563D02*
X96798Y18764D01*
X91519Y25962D02*
Y18764D01*
Y25962D02*
X89119D01*
X88091Y25620D01*
X87405Y24934D01*
X87063Y24248D01*
X86720Y23220D01*
Y21506D01*
X87063Y20478D01*
X87405Y19792D01*
X88091Y19107D01*
X89119Y18764D01*
X91519D01*
X85109Y25962D02*
X82367Y22534D01*
Y18764D01*
X79624Y25962D02*
X82367Y22534D01*
X78013Y25962D02*
X77670Y25620D01*
X77328Y25962D01*
X77670Y26305D01*
X78013Y25962D01*
X77670Y23563D02*
Y18764D01*
X70061Y24248D02*
Y24591D01*
X69718Y25277D01*
X69375Y25620D01*
X68690Y25962D01*
X67318D01*
X66633Y25620D01*
X66290Y25277D01*
X65947Y24591D01*
Y23905D01*
X66290Y23220D01*
X66975Y22192D01*
X70403Y18764D01*
X65604D01*
X61937Y25962D02*
X62965Y25620D01*
X63651Y24591D01*
X63993Y22877D01*
Y21849D01*
X63651Y20135D01*
X62965Y19107D01*
X61937Y18764D01*
X61251D01*
X60223Y19107D01*
X59537Y20135D01*
X59194Y21849D01*
Y22877D01*
X59537Y24591D01*
X60223Y25620D01*
X61251Y25962D01*
X61937D01*
X57240Y24248D02*
Y24591D01*
X56898Y25277D01*
X56555Y25620D01*
X55869Y25962D01*
X54498D01*
X53813Y25620D01*
X53470Y25277D01*
X53127Y24591D01*
Y23905D01*
X53470Y23220D01*
X54155Y22192D01*
X57583Y18764D01*
X52784D01*
X47745Y25962D02*
X51173Y21163D01*
X46031D01*
X47745Y25962D02*
Y18764D01*
X44763Y17735D02*
X39964Y25962D01*
X37428D02*
X38456Y25620D01*
X39141Y24591D01*
X39484Y22877D01*
Y21849D01*
X39141Y20135D01*
X38456Y19107D01*
X37428Y18764D01*
X36742D01*
X35714Y19107D01*
X35028Y20135D01*
X34685Y21849D01*
Y22877D01*
X35028Y24591D01*
X35714Y25620D01*
X36742Y25962D01*
X37428D01*
X33074Y24591D02*
X32389Y24934D01*
X31360Y25962D01*
Y18764D01*
M02*
