G04*
G04 #@! TF.GenerationSoftware,Altium Limited,Altium Designer,22.1.2 (22)*
G04*
G04 Layer_Color=128*
%FSLAX25Y25*%
%MOIN*%
G70*
G04*
G04 #@! TF.SameCoordinates,32997ABC-C250-4A50-851A-9512557143E5*
G04*
G04*
G04 #@! TF.FilePolarity,Positive*
G04*
G01*
G75*
%ADD75C,0.00200*%
D75*
X96870Y5906D02*
X99232D01*
X98051Y4724D02*
Y7087D01*
X91870Y5906D02*
X94232D01*
X93051Y4724D02*
Y7087D01*
X86870Y5906D02*
X89232D01*
X88051Y4724D02*
Y7087D01*
X81870Y5906D02*
X84232D01*
X83051Y4724D02*
Y7087D01*
X24901Y47244D02*
X27657D01*
X26279Y45866D02*
Y48622D01*
X24901Y11811D02*
X27657D01*
X26279Y10433D02*
Y13189D01*
X8365Y11811D02*
X11515D01*
X9940Y10236D02*
Y13386D01*
X8365Y47244D02*
X11515D01*
X9940Y45669D02*
Y48819D01*
X22834Y18149D02*
X25787D01*
X24310Y16673D02*
Y19625D01*
X22834Y40905D02*
X25787D01*
X24310Y39429D02*
Y42382D01*
X49079Y47471D02*
X50279D01*
X49679Y46870D02*
Y48070D01*
X47400Y29521D02*
X48600D01*
X48000Y28921D02*
Y30121D01*
X18400Y50044D02*
X19600D01*
X19000Y49444D02*
Y50644D01*
X49365Y43500D02*
X50565D01*
X49965Y42900D02*
Y44100D01*
X118400Y55900D02*
X119600D01*
X119000Y55300D02*
Y56500D01*
X132400Y44500D02*
X133600D01*
X133000Y43900D02*
Y45100D01*
X145400Y45320D02*
X146600D01*
X146000Y44720D02*
Y45920D01*
X139500Y43500D02*
X140700D01*
X140100Y42900D02*
Y44100D01*
X109391Y52963D02*
X110591D01*
X109991Y52363D02*
Y53563D01*
X111604Y49704D02*
X112804D01*
X112204Y49104D02*
Y50304D01*
X102400Y52000D02*
X103600D01*
X103000Y51400D02*
Y52600D01*
X105441Y53521D02*
X106641D01*
X106041Y52921D02*
Y54120D01*
X103393Y47548D02*
X104593D01*
X103992Y46948D02*
Y48148D01*
X124400Y6500D02*
X125600D01*
X125000Y5900D02*
Y7100D01*
X4900Y29500D02*
X6100D01*
X5500Y28900D02*
Y30100D01*
X4900Y24000D02*
X6100D01*
X5500Y23400D02*
Y24600D01*
X127400Y40000D02*
X128600D01*
X128000Y39400D02*
Y40600D01*
X80601Y33818D02*
X81801D01*
X81201Y33218D02*
Y34418D01*
X77900Y36000D02*
X79100D01*
X78500Y35400D02*
Y36600D01*
X81049Y37283D02*
X82249D01*
X81649Y36683D02*
Y37883D01*
X73900Y36400D02*
X75100D01*
X74500Y35800D02*
Y37000D01*
X102482Y42066D02*
X103682D01*
X103083Y41465D02*
Y42665D01*
X52400Y15000D02*
X53600D01*
X53000Y14400D02*
Y15600D01*
X57600Y15000D02*
X58800D01*
X58200Y14400D02*
Y15600D01*
X51315Y11192D02*
X52515D01*
X51915Y10592D02*
Y11792D01*
X45400Y11000D02*
X46600D01*
X46000Y10400D02*
Y11600D01*
X120822Y47967D02*
X122022D01*
X121422Y47367D02*
Y48567D01*
X115843Y51665D02*
X117043D01*
X116443Y51065D02*
Y52265D01*
X116957Y48453D02*
X118157D01*
X117557Y47853D02*
Y49053D01*
X92868Y39235D02*
X94068D01*
X93468Y38635D02*
Y39835D01*
X97900Y33000D02*
X99100D01*
X98500Y32400D02*
Y33600D01*
X100900Y28000D02*
X102100D01*
X101500Y27400D02*
Y28600D01*
X94400Y42336D02*
X95600D01*
X95000Y41736D02*
Y42936D01*
X99400Y43500D02*
X100600D01*
X100000Y42900D02*
Y44100D01*
X91400Y18300D02*
X92600D01*
X92000Y17700D02*
Y18900D01*
X60573Y32445D02*
X61773D01*
X61173Y31845D02*
Y33045D01*
X64062Y26609D02*
X65262D01*
X64662Y26009D02*
Y27209D01*
X69900Y30500D02*
X71100D01*
X70500Y29900D02*
Y31100D01*
X73900Y27500D02*
X75100D01*
X74500Y26900D02*
Y28100D01*
X50435Y20071D02*
X51635D01*
X51035Y19471D02*
Y20671D01*
X133900Y6500D02*
X135100D01*
X134500Y5900D02*
Y7100D01*
X92475Y50000D02*
X93675D01*
X93075Y49400D02*
Y50600D01*
X84900Y51500D02*
X86100D01*
X85500Y50900D02*
Y52100D01*
X138400Y14500D02*
X139600D01*
X139000Y13900D02*
Y15100D01*
X141900Y15000D02*
X143100D01*
X142500Y14400D02*
Y15600D01*
X139695Y33987D02*
X140895D01*
X140295Y33387D02*
Y34587D01*
X131675Y34620D02*
X132875D01*
X132274Y34020D02*
Y35220D01*
X54400Y4500D02*
X55600D01*
X55000Y3900D02*
Y5100D01*
X72203Y46470D02*
X73404D01*
X72803Y45870D02*
Y47070D01*
X75400Y45311D02*
X76600D01*
X76000Y44712D02*
Y45911D01*
X81260Y41693D02*
X82459D01*
X81859Y41093D02*
Y42293D01*
X72900Y42200D02*
X74100D01*
X73500Y41600D02*
Y42800D01*
X68826Y45763D02*
X70026D01*
X69426Y45163D02*
Y46363D01*
X79809Y28140D02*
X81009D01*
X80409Y27540D02*
Y28740D01*
X132900Y15000D02*
X134100D01*
X133500Y14400D02*
Y15600D01*
X62801Y46969D02*
X64001D01*
X63401Y46369D02*
Y47569D01*
X61504Y41834D02*
X62704D01*
X62104Y41234D02*
Y42434D01*
X33900Y55500D02*
X35100D01*
X34500Y54900D02*
Y56100D01*
X18900Y38000D02*
X20100D01*
X19500Y37400D02*
Y38600D01*
X18900Y20000D02*
X20100D01*
X19500Y19400D02*
Y20600D01*
X57400Y55500D02*
X58600D01*
X58000Y54900D02*
Y56100D01*
X77076Y7000D02*
X78276D01*
X77676Y6400D02*
Y7600D01*
X110954Y39635D02*
X112154D01*
X111554Y39035D02*
Y40235D01*
X121939Y40961D02*
X123139D01*
X122539Y40361D02*
Y41561D01*
X43900Y54500D02*
X45100D01*
X44500Y53900D02*
Y55100D01*
X32900Y3000D02*
X34100D01*
X33500Y2400D02*
Y3600D01*
X17900Y9000D02*
X19100D01*
X18500Y8400D02*
Y9600D01*
X33900Y24500D02*
X35100D01*
X34500Y23900D02*
Y25100D01*
M02*
