G04*
G04 #@! TF.GenerationSoftware,Altium Limited,Altium Designer,22.1.2 (22)*
G04*
G04 Layer_Physical_Order=2*
G04 Layer_Color=16711680*
%FSLAX25Y25*%
%MOIN*%
G70*
G04*
G04 #@! TF.SameCoordinates,32997ABC-C250-4A50-851A-9512557143E5*
G04*
G04*
G04 #@! TF.FilePolarity,Positive*
G04*
G01*
G75*
%ADD13C,0.00600*%
%ADD34O,0.13780X0.04016*%
%ADD35R,0.13780X0.04016*%
%ADD64C,0.01000*%
%ADD66C,0.01500*%
%ADD67O,0.03150X0.04724*%
%ADD68R,0.03150X0.04724*%
%ADD69O,0.09055X0.04724*%
%ADD70O,0.07874X0.04724*%
%ADD71C,0.02953*%
%ADD72C,0.02400*%
%ADD73C,0.00600*%
G36*
X5000Y57934D02*
X33320D01*
X33419Y57434D01*
X33254Y57365D01*
X32765Y56876D01*
X19500D01*
X19500Y56876D01*
X18973Y56772D01*
X18527Y56473D01*
X15027Y52973D01*
X14728Y52527D01*
X14624Y52000D01*
Y49537D01*
X14124Y49367D01*
X13913Y49642D01*
X13210Y50181D01*
X12393Y50520D01*
X11515Y50635D01*
X10440D01*
Y47244D01*
Y43853D01*
X11515D01*
X12393Y43968D01*
X13210Y44307D01*
X13913Y44846D01*
X14452Y45548D01*
X14791Y46366D01*
X14822Y46604D01*
X15350Y46783D01*
X18124Y44009D01*
Y39735D01*
X17635Y39246D01*
X17300Y38438D01*
Y37562D01*
X17635Y36754D01*
X18124Y36265D01*
Y21735D01*
X17635Y21246D01*
X17300Y20438D01*
Y19562D01*
X17635Y18754D01*
X18254Y18135D01*
X19062Y17800D01*
X19938D01*
X20746Y18135D01*
X21365Y18754D01*
X21372Y18771D01*
X21834Y18642D01*
Y17657D01*
X22211Y16746D01*
X22908Y16050D01*
X23818Y15673D01*
X23854D01*
X23886Y15173D01*
X23236Y15087D01*
X22418Y14748D01*
X21715Y14209D01*
X21177Y13507D01*
X20838Y12689D01*
X20788Y12311D01*
X25779D01*
Y15203D01*
X24875D01*
X24803Y15673D01*
X25713Y16050D01*
X26410Y16746D01*
X26787Y17657D01*
Y18642D01*
X26410Y19552D01*
X25713Y20248D01*
X24803Y20626D01*
X23818D01*
X22908Y20248D01*
X22211Y19552D01*
X22162Y19433D01*
X21700Y19562D01*
Y20438D01*
X21365Y21246D01*
X20876Y21735D01*
Y36265D01*
X21365Y36754D01*
X21700Y37562D01*
Y38438D01*
X21365Y39246D01*
X20876Y39735D01*
Y44579D01*
X20877Y44579D01*
X20772Y45106D01*
X20473Y45553D01*
X18682Y47344D01*
X18889Y47844D01*
X19438D01*
X20246Y48179D01*
X20376Y48309D01*
X20692Y48181D01*
X20829Y48055D01*
X20788Y47745D01*
X26279D01*
X31769D01*
X31720Y48122D01*
X31381Y48940D01*
X30842Y49643D01*
X30269Y50082D01*
X30428Y50582D01*
X49483D01*
X49895Y50170D01*
X49688Y49670D01*
X49241D01*
X48432Y49336D01*
X47814Y48717D01*
X47643Y48305D01*
X47394Y48139D01*
X47210Y47971D01*
X47210Y47971D01*
X47043Y47787D01*
X46844Y47490D01*
X46774Y47139D01*
Y31394D01*
X46754Y31386D01*
X46135Y30767D01*
X45800Y29958D01*
Y29083D01*
X46135Y28275D01*
X46754Y27656D01*
X47562Y27321D01*
X48438D01*
X48769Y27458D01*
X49269Y27124D01*
Y26849D01*
X49264Y26842D01*
X49178Y26413D01*
X49178Y26413D01*
Y24765D01*
X46707Y22293D01*
X46464Y21929D01*
X46378Y21500D01*
X46378Y21500D01*
Y18279D01*
X46378Y18279D01*
X46464Y17850D01*
X46707Y17486D01*
X47586Y16607D01*
X47586Y16607D01*
X47949Y16364D01*
X48379Y16278D01*
X48379Y16278D01*
X50607D01*
X50941Y15778D01*
X50826Y15500D01*
X53000D01*
Y14500D01*
X50826D01*
X51135Y13754D01*
X50991Y13191D01*
X50669Y13057D01*
X50050Y12438D01*
X49874Y12014D01*
X47961D01*
X47865Y12246D01*
X47246Y12865D01*
X46438Y13200D01*
X45562D01*
X44754Y12865D01*
X44135Y12246D01*
X43800Y11438D01*
Y10562D01*
X44135Y9754D01*
X44754Y9135D01*
X45562Y8800D01*
X46438D01*
X47246Y9135D01*
X47865Y9754D01*
X48041Y10178D01*
X49953D01*
X50050Y9946D01*
X50669Y9327D01*
X51477Y8992D01*
X51541D01*
X51732Y8530D01*
X51120Y7918D01*
X20901D01*
X20590Y8298D01*
X20700Y8562D01*
Y9438D01*
X20365Y10246D01*
X19746Y10865D01*
X18938Y11200D01*
X18062D01*
X17254Y10865D01*
X16635Y10246D01*
X16300Y9438D01*
Y8562D01*
X16635Y7754D01*
X17254Y7135D01*
X18062Y6800D01*
X18938D01*
X19266Y6936D01*
X19851Y6351D01*
X20149Y6152D01*
X20500Y6082D01*
X51500D01*
X51851Y6152D01*
X52149Y6351D01*
X55149Y9351D01*
X55348Y9649D01*
X55418Y10000D01*
Y12050D01*
X56728Y13361D01*
X56954Y13135D01*
X57762Y12800D01*
X58582D01*
Y9380D01*
X55766Y6564D01*
X55438Y6700D01*
X54562D01*
X53754Y6365D01*
X53135Y5746D01*
X52800Y4938D01*
Y4062D01*
X52947Y3706D01*
X52524Y3423D01*
X51973Y3973D01*
X51527Y4272D01*
X51000Y4376D01*
X35235D01*
X34746Y4865D01*
X33938Y5200D01*
X33062D01*
X32254Y4865D01*
X31635Y4246D01*
X31300Y3438D01*
Y2562D01*
X31635Y1754D01*
X31767Y1622D01*
X31560Y1122D01*
X5000D01*
X4986Y1119D01*
X3995Y1249D01*
X3058Y1637D01*
X2254Y2254D01*
X1637Y3058D01*
X1249Y3995D01*
X1119Y4986D01*
X1122Y5000D01*
Y54055D01*
X1119Y54070D01*
X1249Y55060D01*
X1637Y55997D01*
X2254Y56801D01*
X3058Y57418D01*
X3995Y57806D01*
X4986Y57936D01*
X5000Y57934D01*
D02*
G37*
G36*
X74280Y57472D02*
X65252Y48444D01*
X65057Y48425D01*
X64647Y48834D01*
X63901Y49143D01*
Y46969D01*
Y44795D01*
X64483Y45036D01*
X64983Y44787D01*
Y44056D01*
X65017Y43889D01*
X65053Y43705D01*
X65053Y43705D01*
X65053Y43705D01*
X65128Y43592D01*
X65252Y43407D01*
X65428Y43231D01*
X65428Y43231D01*
X65428Y43231D01*
X67420Y41239D01*
X67717Y41041D01*
X68068Y40971D01*
X70218D01*
X70570Y41041D01*
X70867Y41239D01*
X71008Y41380D01*
X71499Y41283D01*
X71635Y40954D01*
X72254Y40335D01*
X73062Y40000D01*
X73938D01*
X74746Y40335D01*
X75365Y40954D01*
X75501Y41282D01*
X77349D01*
X77700Y41352D01*
X77998Y41551D01*
X79501Y43054D01*
X79925Y42771D01*
X79685Y42193D01*
X81359D01*
Y43867D01*
X80613Y43558D01*
X80320Y43264D01*
X79931Y43583D01*
X79933Y43585D01*
X80002Y43936D01*
Y50705D01*
X81980Y52682D01*
X83158D01*
X83436Y52267D01*
X83326Y52000D01*
X87674D01*
X87564Y52267D01*
X87841Y52682D01*
X92595D01*
X92638Y52200D01*
X91829Y51865D01*
X91210Y51246D01*
X90875Y50438D01*
Y49562D01*
X91210Y48754D01*
X91829Y48135D01*
X92638Y47800D01*
X93513D01*
X93638Y47852D01*
X94343Y47146D01*
Y45860D01*
X94312Y45829D01*
X94069Y45465D01*
X93984Y45036D01*
X93984Y45036D01*
Y44296D01*
X93754Y44201D01*
X93135Y43582D01*
X92800Y42774D01*
Y41898D01*
X92997Y41422D01*
X92222Y41100D01*
X91603Y40482D01*
X91294Y39735D01*
X95642D01*
X95471Y40150D01*
X96246Y40471D01*
X96865Y41090D01*
X96917Y41214D01*
X98457D01*
X98457Y41214D01*
X98886Y41300D01*
X99145Y41473D01*
X99562Y41300D01*
X100438D01*
X100933Y41505D01*
X101217Y40819D01*
X101836Y40200D01*
X102583Y39891D01*
Y42066D01*
X103083D01*
Y42566D01*
X105257D01*
X105043Y43082D01*
X105330Y43582D01*
X111500D01*
X111851Y43652D01*
X112149Y43851D01*
X112649Y44351D01*
X112848Y44649D01*
X112918Y45000D01*
Y47618D01*
X113450Y47839D01*
X114069Y48458D01*
X114404Y49266D01*
Y49885D01*
X114904Y50092D01*
X115197Y49800D01*
X115655Y49610D01*
X115383Y48953D01*
X117557D01*
Y48453D01*
X118057D01*
Y46279D01*
X118803Y46588D01*
X119057Y46841D01*
X119548Y46744D01*
X119557Y46721D01*
X120038Y46240D01*
X120127Y45622D01*
X115058Y40553D01*
X113555D01*
X113419Y40881D01*
X112800Y41500D01*
X111992Y41835D01*
X111116D01*
X110308Y41500D01*
X109689Y40881D01*
X109354Y40073D01*
Y39198D01*
X109490Y38869D01*
X108039Y37418D01*
X95415D01*
X95223Y37880D01*
X95333Y37989D01*
X95642Y38735D01*
X91294D01*
X91603Y37989D01*
X91211Y37728D01*
X88853Y40086D01*
X88555Y40285D01*
X88204Y40355D01*
X84228D01*
X83894Y40855D01*
X84034Y41193D01*
X79685D01*
X79842Y40815D01*
X79743Y40285D01*
X79445Y40086D01*
X78777Y39418D01*
X64380D01*
X63590Y40208D01*
X63969Y40587D01*
X64304Y41396D01*
Y42271D01*
X63969Y43080D01*
X63350Y43699D01*
X62542Y44034D01*
X61667D01*
X60858Y43699D01*
X60239Y43080D01*
X59904Y42271D01*
Y41396D01*
X59961Y41259D01*
X52012Y33310D01*
X51512Y33517D01*
Y36659D01*
X55793Y40940D01*
X55793Y40940D01*
X56036Y41304D01*
X56122Y41734D01*
Y50000D01*
X56122Y50000D01*
X56036Y50429D01*
X55793Y50793D01*
X55793Y50793D01*
X51293Y55293D01*
X50929Y55536D01*
X50500Y55622D01*
X50500Y55622D01*
X46417D01*
X46365Y55746D01*
X45746Y56365D01*
X44938Y56700D01*
X44062D01*
X43254Y56365D01*
X42635Y55746D01*
X42300Y54938D01*
Y54062D01*
X42635Y53254D01*
X42971Y52918D01*
X42764Y52418D01*
X21743D01*
X21392Y52348D01*
X21094Y52149D01*
X20550Y51605D01*
X20246Y51909D01*
X19438Y52244D01*
X18898D01*
X18691Y52744D01*
X20070Y54124D01*
X32765D01*
X33254Y53635D01*
X34062Y53300D01*
X34938D01*
X35746Y53635D01*
X36365Y54254D01*
X36700Y55062D01*
Y55938D01*
X36365Y56746D01*
X35746Y57365D01*
X35581Y57434D01*
X35680Y57934D01*
X56820D01*
X56919Y57434D01*
X56754Y57365D01*
X56135Y56746D01*
X55826Y56000D01*
X60174D01*
X59865Y56746D01*
X59246Y57365D01*
X59081Y57434D01*
X59180Y57934D01*
X74089D01*
X74280Y57472D01*
D02*
G37*
G36*
X142885Y44817D02*
X143183Y44618D01*
X143534Y44548D01*
X143938D01*
X144135Y44074D01*
X144754Y43455D01*
X145562Y43120D01*
X146438D01*
X147246Y43455D01*
X147865Y44074D01*
X148200Y44882D01*
Y45757D01*
X148067Y46078D01*
X148345Y46494D01*
X154488D01*
X155273Y46597D01*
X155859Y46840D01*
X156359Y46601D01*
Y42455D01*
X155859Y42215D01*
X155273Y42458D01*
X154488Y42561D01*
X150106D01*
Y39528D01*
Y36494D01*
X154488D01*
X155273Y36597D01*
X155859Y36840D01*
X156359Y36601D01*
Y32455D01*
X155859Y32215D01*
X155273Y32458D01*
X154488Y32561D01*
X145942D01*
Y34976D01*
X145872Y35327D01*
X145673Y35625D01*
X145266Y36032D01*
X145457Y36494D01*
X149106D01*
Y39528D01*
Y42561D01*
X144724D01*
X143939Y42458D01*
X143208Y42155D01*
X142579Y41673D01*
X142097Y41045D01*
X141794Y40313D01*
X141774Y40158D01*
X141300Y39998D01*
X140460Y40838D01*
X140656Y41349D01*
X141346Y41635D01*
X141965Y42254D01*
X142300Y43062D01*
Y43938D01*
X141965Y44746D01*
X141346Y45365D01*
X140538Y45700D01*
X139877D01*
Y45753D01*
X139807Y46104D01*
X139608Y46402D01*
X137061Y48949D01*
X136764Y49148D01*
X136412Y49218D01*
X123283D01*
X122669Y49832D01*
X121860Y50167D01*
X120985D01*
X120176Y49832D01*
X119922Y49578D01*
X119541Y49654D01*
X119379Y49742D01*
X118872Y50249D01*
X118935Y50573D01*
X119025Y50749D01*
X120267D01*
X120618Y50819D01*
X120916Y51018D01*
X123480Y53582D01*
X134120D01*
X142885Y44817D01*
D02*
G37*
G36*
X131108Y45682D02*
X130800Y44938D01*
Y44062D01*
X131135Y43254D01*
X131357Y43032D01*
Y36621D01*
X131028Y36485D01*
X130409Y35866D01*
X130075Y35058D01*
Y34790D01*
X129575Y34583D01*
X129122Y35036D01*
Y38083D01*
X129246Y38135D01*
X129865Y38754D01*
X130200Y39562D01*
Y40438D01*
X129865Y41246D01*
X129246Y41865D01*
X128438Y42200D01*
X127562D01*
X126754Y41865D01*
X126135Y41246D01*
X125800Y40438D01*
Y39562D01*
X126135Y38754D01*
X126754Y38135D01*
X126878Y38083D01*
Y34571D01*
X126878Y34571D01*
X126964Y34142D01*
X127207Y33778D01*
X129985Y31000D01*
X130278Y30707D01*
X130278Y30707D01*
X130642Y30464D01*
X131071Y30378D01*
X131071Y30378D01*
X133894D01*
X133894Y30378D01*
X134324Y30464D01*
X134687Y30707D01*
X135362Y31382D01*
X136360D01*
X136360Y31382D01*
X136789Y31467D01*
X137153Y31710D01*
X137504Y31356D01*
X130566Y24418D01*
X101880D01*
X100960Y25338D01*
X100968Y25374D01*
X101000Y25432D01*
Y27500D01*
X98932D01*
X98874Y27468D01*
X98838Y27460D01*
X92415Y33882D01*
X92623Y34382D01*
X96150D01*
X96484Y33882D01*
X96326Y33500D01*
X100674D01*
X100516Y33882D01*
X100850Y34382D01*
X116879D01*
X117230Y34452D01*
X117528Y34651D01*
X121773Y38897D01*
X122102Y38761D01*
X122977D01*
X123786Y39096D01*
X124404Y39714D01*
X124739Y40523D01*
Y41398D01*
X124404Y42207D01*
X123786Y42826D01*
X122977Y43161D01*
X122102D01*
X121293Y42826D01*
X120674Y42207D01*
X120339Y41398D01*
Y40523D01*
X120475Y40194D01*
X116499Y36218D01*
X110087D01*
X109896Y36680D01*
X110788Y37571D01*
X111116Y37435D01*
X111992D01*
X112800Y37770D01*
X113419Y38389D01*
X113555Y38718D01*
X115438D01*
X115789Y38787D01*
X116087Y38986D01*
X122050Y44949D01*
X128076D01*
X128427Y45019D01*
X128725Y45218D01*
X129689Y46182D01*
X130918D01*
X131108Y45682D01*
D02*
G37*
G36*
X66075Y35162D02*
X64280Y33366D01*
X64037Y33002D01*
X63951Y32573D01*
X63951Y32573D01*
Y30274D01*
X63869Y30192D01*
X63626Y29828D01*
X63541Y29399D01*
X63541Y29399D01*
Y28526D01*
X63416Y28474D01*
X62797Y27856D01*
X62462Y27047D01*
Y26172D01*
X62797Y25363D01*
X63416Y24744D01*
X64225Y24409D01*
X65100D01*
X65908Y24744D01*
X66527Y25363D01*
X66862Y26172D01*
Y27047D01*
X66527Y27856D01*
X65908Y28474D01*
X65895Y28480D01*
X65838Y28988D01*
X65866Y29016D01*
X65866Y29016D01*
X66109Y29380D01*
X66194Y29809D01*
X66194Y29809D01*
Y32108D01*
X68126Y34040D01*
X71374D01*
X75258Y30156D01*
X75321Y30114D01*
X75370Y30058D01*
X75106Y29630D01*
X75000Y29674D01*
Y28000D01*
X76674D01*
X76365Y28746D01*
X76100Y29011D01*
X76407Y29412D01*
X78209Y28378D01*
Y27703D01*
X78544Y26894D01*
X79163Y26275D01*
X79972Y25940D01*
X80847D01*
X81655Y26275D01*
X82274Y26894D01*
X82469Y27364D01*
X82932Y27649D01*
X83077Y27624D01*
X83288Y27582D01*
X92726D01*
X94225Y26083D01*
X94033Y25622D01*
X85000D01*
X85000Y25622D01*
X84571Y25536D01*
X84207Y25293D01*
X84207Y25293D01*
X77690Y18777D01*
X77447Y18413D01*
X77362Y17983D01*
X77362Y17983D01*
Y9200D01*
X77239D01*
X76430Y8865D01*
X75811Y8246D01*
X75476Y7438D01*
Y6562D01*
X75744Y5918D01*
X75494Y5418D01*
X69280D01*
Y28083D01*
X69780Y28417D01*
X70062Y28300D01*
X70938D01*
X71746Y28635D01*
X72365Y29254D01*
X72700Y30062D01*
Y30938D01*
X72365Y31746D01*
X71746Y32365D01*
X70938Y32700D01*
X70062D01*
X69254Y32365D01*
X68635Y31746D01*
X68300Y30938D01*
Y30085D01*
X68197Y29982D01*
X68158Y29956D01*
X67713Y29511D01*
X67514Y29213D01*
X67445Y28862D01*
Y4851D01*
X67514Y4500D01*
X67713Y4203D01*
X68065Y3851D01*
X68362Y3652D01*
X68714Y3582D01*
X78712D01*
X79063Y3652D01*
X79361Y3851D01*
X80014Y4505D01*
X80476Y4313D01*
Y2796D01*
X57061D01*
X56883Y3296D01*
X57200Y4062D01*
Y4938D01*
X57064Y5266D01*
X60149Y8351D01*
X60348Y8649D01*
X60418Y9000D01*
Y13330D01*
X60348Y13681D01*
X60155Y13970D01*
X60400Y14562D01*
Y15438D01*
X60065Y16246D01*
X59446Y16865D01*
X58638Y17200D01*
X58620D01*
X58218Y17675D01*
Y27705D01*
X60758Y30245D01*
X61610D01*
X62419Y30580D01*
X63038Y31198D01*
X63373Y32007D01*
Y32882D01*
X63038Y33691D01*
X62419Y34310D01*
X61610Y34645D01*
X60735D01*
X59927Y34310D01*
X59308Y33691D01*
X58973Y32882D01*
Y32007D01*
X59251Y31334D01*
X56651Y28734D01*
X56452Y28436D01*
X56382Y28085D01*
Y18056D01*
X55451Y17124D01*
X55252Y16827D01*
X55209Y16609D01*
X54866Y16446D01*
X54682Y16429D01*
X54246Y16865D01*
X54100Y16926D01*
X54002Y17416D01*
X54793Y18207D01*
X54793Y18207D01*
X55036Y18571D01*
X55122Y19000D01*
X55122Y19000D01*
Y30425D01*
X60588Y35891D01*
X65346D01*
X66075Y35162D01*
D02*
G37*
%LPC*%
G36*
X9440Y50635D02*
X8365D01*
X7488Y50520D01*
X6670Y50181D01*
X5967Y49642D01*
X5428Y48940D01*
X5090Y48122D01*
X5040Y47744D01*
X9440D01*
Y50635D01*
D02*
G37*
G36*
X31769Y46745D02*
X26779D01*
Y43853D01*
X28444D01*
X29322Y43969D01*
X30140Y44308D01*
X30842Y44847D01*
X31381Y45549D01*
X31720Y46367D01*
X31769Y46745D01*
D02*
G37*
G36*
X9440Y46744D02*
X5040D01*
X5090Y46366D01*
X5428Y45548D01*
X5967Y44846D01*
X6670Y44307D01*
X7488Y43968D01*
X8365Y43853D01*
X9440D01*
Y46744D01*
D02*
G37*
G36*
X25779Y46745D02*
X20788D01*
X20838Y46367D01*
X21176Y45549D01*
X21715Y44847D01*
X22418Y44308D01*
X23236Y43969D01*
X23900Y43881D01*
X23867Y43382D01*
X23818D01*
X22908Y43005D01*
X22211Y42308D01*
X21834Y41398D01*
Y40413D01*
X22211Y39502D01*
X22908Y38806D01*
X23818Y38429D01*
X24803D01*
X25713Y38806D01*
X26410Y39502D01*
X26787Y40413D01*
Y41398D01*
X26410Y42308D01*
X25713Y43005D01*
X24803Y43382D01*
X24871Y43853D01*
X25779D01*
Y46745D01*
D02*
G37*
G36*
X6000Y31674D02*
Y30000D01*
X7674D01*
X7365Y30746D01*
X6746Y31365D01*
X6000Y31674D01*
D02*
G37*
G36*
X5000D02*
X4254Y31365D01*
X3635Y30746D01*
X3326Y30000D01*
X5000D01*
Y31674D01*
D02*
G37*
G36*
X7674Y29000D02*
X6000D01*
Y27326D01*
X6746Y27635D01*
X7365Y28254D01*
X7674Y29000D01*
D02*
G37*
G36*
X5000D02*
X3326D01*
X3635Y28254D01*
X4254Y27635D01*
X5000Y27326D01*
Y29000D01*
D02*
G37*
G36*
X35000Y26674D02*
Y25000D01*
X36674D01*
X36365Y25746D01*
X35746Y26365D01*
X35000Y26674D01*
D02*
G37*
G36*
X34000D02*
X33254Y26365D01*
X32635Y25746D01*
X32326Y25000D01*
X34000D01*
Y26674D01*
D02*
G37*
G36*
X6000Y26174D02*
Y24500D01*
X7674D01*
X7365Y25246D01*
X6746Y25865D01*
X6000Y26174D01*
D02*
G37*
G36*
X5000D02*
X4254Y25865D01*
X3635Y25246D01*
X3326Y24500D01*
X5000D01*
Y26174D01*
D02*
G37*
G36*
X36674Y24000D02*
X35000D01*
Y22326D01*
X35746Y22635D01*
X36365Y23254D01*
X36674Y24000D01*
D02*
G37*
G36*
X34000D02*
X32326D01*
X32635Y23254D01*
X33254Y22635D01*
X34000Y22326D01*
Y24000D01*
D02*
G37*
G36*
X7674Y23500D02*
X6000D01*
Y21826D01*
X6746Y22135D01*
X7365Y22754D01*
X7674Y23500D01*
D02*
G37*
G36*
X5000D02*
X3326D01*
X3635Y22754D01*
X4254Y22135D01*
X5000Y21826D01*
Y23500D01*
D02*
G37*
G36*
X28444Y15203D02*
X26779D01*
Y12311D01*
X31770D01*
X31720Y12689D01*
X31381Y13507D01*
X30842Y14209D01*
X30140Y14748D01*
X29322Y15087D01*
X28444Y15203D01*
D02*
G37*
G36*
X11515Y15202D02*
X10440D01*
Y12311D01*
X14841D01*
X14791Y12688D01*
X14452Y13506D01*
X13913Y14209D01*
X13211Y14748D01*
X12393Y15086D01*
X11515Y15202D01*
D02*
G37*
G36*
X9440D02*
X8365D01*
X7488Y15086D01*
X6670Y14748D01*
X5968Y14209D01*
X5429Y13506D01*
X5090Y12688D01*
X5040Y12311D01*
X9440D01*
Y15202D01*
D02*
G37*
G36*
X31770Y11311D02*
X26779D01*
Y8420D01*
X28444D01*
X29322Y8536D01*
X30140Y8874D01*
X30842Y9413D01*
X31381Y10116D01*
X31720Y10934D01*
X31770Y11311D01*
D02*
G37*
G36*
X25779D02*
X20788D01*
X20838Y10934D01*
X21177Y10116D01*
X21715Y9413D01*
X22418Y8874D01*
X23236Y8536D01*
X24114Y8420D01*
X25779D01*
Y11311D01*
D02*
G37*
G36*
X14841Y11311D02*
X10440D01*
Y8420D01*
X11515D01*
X12393Y8535D01*
X13211Y8874D01*
X13913Y9413D01*
X14452Y10115D01*
X14791Y10933D01*
X14841Y11311D01*
D02*
G37*
G36*
X9440D02*
X5040D01*
X5090Y10933D01*
X5429Y10115D01*
X5968Y9413D01*
X6670Y8874D01*
X7488Y8535D01*
X8365Y8420D01*
X9440D01*
Y11311D01*
D02*
G37*
G36*
X60174Y55000D02*
X58500D01*
Y53326D01*
X59246Y53635D01*
X59865Y54254D01*
X60174Y55000D01*
D02*
G37*
G36*
X57500D02*
X55826D01*
X56135Y54254D01*
X56754Y53635D01*
X57500Y53326D01*
Y55000D01*
D02*
G37*
G36*
X87674Y51000D02*
X86000D01*
Y49326D01*
X86746Y49635D01*
X87365Y50254D01*
X87674Y51000D01*
D02*
G37*
G36*
X85000D02*
X83326D01*
X83635Y50254D01*
X84254Y49635D01*
X85000Y49326D01*
Y51000D01*
D02*
G37*
G36*
X62901Y49143D02*
X62155Y48834D01*
X61536Y48215D01*
X61227Y47469D01*
X62901D01*
Y49143D01*
D02*
G37*
G36*
X117057Y47953D02*
X115383D01*
X115692Y47207D01*
X116311Y46588D01*
X117057Y46279D01*
Y47953D01*
D02*
G37*
G36*
X62901Y46469D02*
X61227D01*
X61536Y45723D01*
X62155Y45104D01*
X62901Y44795D01*
Y46469D01*
D02*
G37*
G36*
X82359Y43867D02*
Y42193D01*
X84034D01*
X83725Y42939D01*
X83106Y43558D01*
X82359Y43867D01*
D02*
G37*
G36*
X105257Y41565D02*
X103583D01*
Y39891D01*
X104329Y40200D01*
X104948Y40819D01*
X105257Y41565D01*
D02*
G37*
G36*
X100674Y32500D02*
X99000D01*
Y30826D01*
X99746Y31135D01*
X100365Y31754D01*
X100674Y32500D01*
D02*
G37*
G36*
X98000D02*
X96326D01*
X96635Y31754D01*
X97254Y31135D01*
X98000Y30826D01*
Y32500D01*
D02*
G37*
G36*
X102000Y30174D02*
Y28500D01*
X103674D01*
X103365Y29246D01*
X102746Y29865D01*
X102000Y30174D01*
D02*
G37*
G36*
X101000D02*
X100254Y29865D01*
X99635Y29246D01*
X99326Y28500D01*
X101000D01*
Y30174D01*
D02*
G37*
G36*
X103674Y27500D02*
X102000D01*
Y25826D01*
X102746Y26135D01*
X103365Y26754D01*
X103674Y27500D01*
D02*
G37*
G36*
X74000Y29674D02*
X73254Y29365D01*
X72635Y28746D01*
X72326Y28000D01*
X74000D01*
Y29674D01*
D02*
G37*
G36*
X76674Y27000D02*
X75000D01*
Y25326D01*
X75746Y25635D01*
X76365Y26254D01*
X76674Y27000D01*
D02*
G37*
G36*
X74000D02*
X72326D01*
X72635Y26254D01*
X73254Y25635D01*
X74000Y25326D01*
Y27000D01*
D02*
G37*
%LPD*%
D13*
X49659Y47490D02*
X49679Y47471D01*
X48043Y47490D02*
X49659D01*
X47692Y29829D02*
X48000Y29521D01*
X47692Y29829D02*
Y47139D01*
X20632Y50389D02*
X21743Y51500D01*
X19344Y50389D02*
X20632D01*
X19000Y50044D02*
X19344Y50389D01*
X21743Y51500D02*
X49864D01*
X52200Y49164D01*
X49965Y43500D02*
X52200Y45735D01*
Y49164D01*
X56100Y14030D02*
Y16475D01*
X18500Y9000D02*
X20500Y7000D01*
X54500Y10000D02*
Y12430D01*
X56100Y16475D02*
X57300Y17675D01*
X20500Y7000D02*
X51500D01*
X57300Y17675D02*
Y28085D01*
X61173Y31958D02*
Y32445D01*
X54500Y12430D02*
X56100Y14030D01*
X51500Y7000D02*
X54500Y10000D01*
X57300Y28085D02*
X61173Y31958D01*
X117748Y55000D02*
X118649Y55900D01*
X119000D01*
X141535Y49528D02*
X149606D01*
X135363Y55700D02*
X141535Y49528D01*
X132274Y43287D02*
X133000Y44013D01*
Y44500D01*
X132274Y34620D02*
Y43287D01*
X143534Y45466D02*
X145854D01*
X146000Y45320D01*
X140100Y43500D02*
Y43987D01*
X138959Y45128D02*
Y45753D01*
Y45128D02*
X140100Y43987D01*
X137300Y42700D02*
Y45515D01*
Y42700D02*
X145024Y34976D01*
Y31105D02*
Y34976D01*
X120216Y53800D02*
X120382Y53951D01*
X110500Y55000D02*
X117748D01*
X120382Y53951D02*
X122352Y55700D01*
X106700Y56300D02*
X109991Y53009D01*
X114800Y53800D02*
X119984D01*
X109991Y52963D02*
Y53009D01*
X108000Y57500D02*
X110500Y55000D01*
X119984Y53800D02*
X120216Y53800D01*
X112135Y51135D02*
X114800Y53800D01*
X75606Y57500D02*
X108000D01*
X76103Y56300D02*
X106700D01*
X112000Y49500D02*
X112204Y49704D01*
X112000Y45000D02*
Y49500D01*
X103000Y51513D02*
Y52000D01*
X104462Y55100D02*
X106041Y53521D01*
X76600Y55100D02*
X104462D01*
X103000Y51513D02*
X103992Y50520D01*
Y47548D02*
Y50520D01*
X118772Y51667D02*
X120267D01*
X134500Y54500D02*
X143534Y45466D01*
X122352Y55700D02*
X135363D01*
X120267Y51667D02*
X123100Y54500D01*
X134500D01*
X112135Y49635D02*
Y51135D01*
X64000Y38500D02*
X79157D01*
X62104Y41834D02*
X62270Y41668D01*
Y40230D02*
Y41668D01*
Y40230D02*
X64000Y38500D01*
X91391Y33609D02*
X101500Y23500D01*
X81201Y33818D02*
X91391Y33609D01*
X78156Y33854D02*
X78334Y33675D01*
X80817Y31481D02*
X82045Y31440D01*
X78156Y33854D02*
Y35656D01*
X80585Y31489D02*
X80817Y31481D01*
X78334Y33675D02*
X80585Y31489D01*
X77354Y32509D02*
X79214Y30709D01*
X79926Y30300D01*
X81548Y30240D01*
X82635Y35724D02*
X83060Y35300D01*
X116879D01*
X81649Y36796D02*
X82635Y35809D01*
X78156Y35656D02*
X78500Y36000D01*
X82635Y35724D02*
Y35809D01*
X81649Y36796D02*
Y37283D01*
X74500Y35612D02*
Y36400D01*
X76300Y33563D02*
X77354Y32509D01*
X74500Y35612D02*
X76300Y33563D01*
X59500Y9000D02*
Y13330D01*
X58200Y14630D02*
X59500Y13330D01*
X58200Y14630D02*
Y15000D01*
X46096Y11096D02*
X51819D01*
X51915Y11192D01*
X46000Y11000D02*
X46096Y11096D01*
X136412Y48300D02*
X138959Y45753D01*
X121756Y48300D02*
X136412D01*
X118770Y51665D02*
X118772Y51667D01*
X128076Y45867D02*
X129309Y47100D01*
X135715D01*
X121422Y47967D02*
X121756Y48300D01*
X135715Y47100D02*
X137300Y45515D01*
X121670Y45867D02*
X128076D01*
X116443Y51665D02*
X118770D01*
X115438Y39635D02*
X121670Y45867D01*
X111500Y44500D02*
X112000Y45000D01*
X88204Y39437D02*
X91141Y36500D01*
X108419D01*
X116879Y35300D02*
X122539Y40961D01*
X108419Y36500D02*
X111554Y39635D01*
X102323Y44500D02*
X111500D01*
X100400Y46423D02*
Y47600D01*
Y46423D02*
X102323Y44500D01*
X51035Y20071D02*
Y20196D01*
X52500Y21661D02*
Y32500D01*
X51035Y20196D02*
X52500Y21661D01*
Y32500D02*
X61834Y41834D01*
X68362Y28862D02*
X68807Y29307D01*
X70013Y30500D02*
X70500D01*
X68807Y29307D02*
X68820D01*
X70013Y30500D01*
X68362Y4851D02*
Y28862D01*
X68714Y4500D02*
X78712D01*
X68362Y4851D02*
X68714Y4500D01*
X139979Y32533D02*
Y33671D01*
X101500Y23500D02*
X130946D01*
X139979Y33671D02*
X140295Y33987D01*
X130946Y23500D02*
X139979Y32533D01*
X100506Y21100D02*
X115900D01*
X93106Y28500D02*
X100506Y21100D01*
X93603Y29700D02*
X101003Y22300D01*
X117700D02*
X127100Y12900D01*
X115900Y21100D02*
X125300Y11700D01*
X101003Y22300D02*
X117700D01*
X83785Y29700D02*
X93603D01*
X83288Y28500D02*
X93106D01*
X134500Y6500D02*
X137000Y9000D01*
Y10125D01*
X135425Y11700D02*
X137000Y10125D01*
X81548Y30240D02*
X83288Y28500D01*
X82045Y31440D02*
X83785Y29700D01*
X79085Y51085D02*
X81600Y53600D01*
X94400D02*
X100400Y47600D01*
X81600Y53600D02*
X94400D01*
X79085Y43936D02*
Y51085D01*
X127100Y12900D02*
X134430D01*
X138130Y16600D01*
X140900D01*
X142500Y15000D01*
X111554Y39635D02*
X115438D01*
X55000Y4500D02*
X59500Y9000D01*
X69721Y43088D02*
X72803Y46170D01*
Y46470D01*
X74537Y44967D02*
X75656D01*
X76000Y45311D01*
X73870Y44300D02*
X74537Y44967D01*
X70218Y41888D02*
X72630Y44300D01*
X69663Y48163D02*
X76600Y55100D01*
X68068Y41888D02*
X70218D01*
X69663Y46000D02*
Y48163D01*
X69426Y45763D02*
X69663Y46000D01*
X72630Y44300D02*
X73870D01*
X73500Y42200D02*
X77349D01*
X68566Y43088D02*
X69721D01*
X77349Y42200D02*
X79085Y43936D01*
X80094Y39437D02*
X88204D01*
X79157Y38500D02*
X80094Y39437D01*
X125300Y11700D02*
X135425D01*
X145024Y31105D02*
X146602Y29528D01*
X149606D01*
X65901Y47795D02*
X75606Y57500D01*
X67101Y47298D02*
X76103Y56300D01*
X67101Y45190D02*
Y47298D01*
X65901Y44056D02*
Y47795D01*
X67101Y45190D02*
X67140Y45152D01*
X67277Y44377D01*
X66077Y43880D02*
X68068Y41888D01*
X65901Y44056D02*
X66077Y43880D01*
X67277Y44377D02*
X67577Y44077D01*
X61834Y41834D02*
X62104D01*
X67577Y44077D02*
Y44077D01*
Y44077D02*
X68566Y43088D01*
X47692Y47139D02*
X47867Y47314D01*
X47867Y47314D02*
X48043Y47490D01*
X80938Y9568D02*
X92288D01*
X92640Y6317D02*
Y9216D01*
X92288Y9568D02*
X92640Y9216D01*
X80176Y5965D02*
Y8806D01*
X78712Y4500D02*
X80176Y5965D01*
Y8806D02*
X80938Y9568D01*
X92640Y6317D02*
X93051Y5906D01*
D34*
X149606Y39528D02*
D03*
Y19528D02*
D03*
Y29528D02*
D03*
Y49528D02*
D03*
D35*
Y9528D02*
D03*
D64*
X144134Y41621D02*
X144147Y41608D01*
X145540Y39528D02*
X149606D01*
X144147Y40921D02*
Y41608D01*
X144134Y41621D02*
Y42866D01*
X136733Y50267D02*
X144134Y42866D01*
X119858Y50267D02*
X136733D01*
X144147Y40921D02*
X145540Y39528D01*
X113912Y5906D02*
X115617Y4200D01*
X122252Y9248D02*
Y10248D01*
X115617Y4200D02*
X131800D01*
X132000Y4000D01*
X122252Y9248D02*
X125000Y6500D01*
X112800Y19700D02*
X122252Y10248D01*
X128000Y34571D02*
X130779Y31793D01*
X128000Y34571D02*
Y40000D01*
X76051Y30949D02*
X76261Y30788D01*
X80409Y28140D02*
Y28409D01*
X76261Y30788D02*
X80409Y28409D01*
X71838Y35162D02*
X76051Y30949D01*
X67661Y35162D02*
X71838D01*
X50532Y14732D02*
X52732D01*
X53000Y15355D02*
X55900Y18255D01*
X45000Y14000D02*
X49800D01*
X52732Y14732D02*
X53000Y15000D01*
X49800Y14000D02*
X50532Y14732D01*
X53000Y15000D02*
Y15355D01*
X55900Y18255D02*
Y30527D01*
X48379Y17400D02*
X52400D01*
X54000Y19000D02*
Y30890D01*
X52400Y17400D02*
X54000Y19000D01*
X55900Y30527D02*
X60118Y34745D01*
X118602Y49118D02*
X118710D01*
X117936Y48453D02*
X118602Y49118D01*
X117557Y48453D02*
X117936D01*
X118710Y49118D02*
X119858Y50267D01*
X102566Y42066D02*
X111170D01*
X117557Y48453D01*
X99735Y39235D02*
X102566Y42066D01*
X93468Y39235D02*
X99735D01*
X101400Y28100D02*
Y30100D01*
X98500Y33000D02*
X101400Y30100D01*
Y28100D02*
X101500Y28000D01*
X95164Y42336D02*
X98457D01*
X95000Y42500D02*
X95164Y42336D01*
X98457D02*
X99621Y43500D01*
X95105Y45036D02*
X95465Y45395D01*
X95000Y42336D02*
X95105Y42441D01*
Y45036D01*
X99621Y43500D02*
X100000D01*
X95465Y45395D02*
Y47611D01*
X93075Y50000D02*
X95465Y47611D01*
X91732Y18032D02*
X92000Y18300D01*
X91732Y15532D02*
Y18032D01*
X91000Y13744D02*
Y14800D01*
X91732Y15532D01*
X99926Y19700D02*
X112800D01*
X85000Y24500D02*
X95126D01*
X99926Y19700D01*
X78483Y17983D02*
X85000Y24500D01*
X78483Y8186D02*
Y17983D01*
X54000Y30890D02*
X60123Y37013D01*
X60118Y34745D02*
X62125D01*
X63473Y33397D01*
Y30776D02*
Y33397D01*
X61500Y28803D02*
X63473Y30776D01*
X66962Y24962D02*
Y30962D01*
X63000Y24000D02*
X66000D01*
X66962Y24962D01*
X64662Y29399D02*
X65073Y29809D01*
X64662Y26609D02*
Y29399D01*
X65073Y29809D02*
Y32573D01*
X72818Y29561D02*
Y31435D01*
X71453Y32800D02*
X72818Y31435D01*
Y29561D02*
X74500Y27879D01*
Y27500D02*
Y27879D01*
X66962Y30962D02*
X68800Y32800D01*
X71453D01*
X61500Y25500D02*
X63000Y24000D01*
X65073Y32573D02*
X67661Y35162D01*
X61500Y25500D02*
Y28803D01*
X60123Y37013D02*
X65810D01*
X66323Y36500D01*
X67661Y35162D01*
X132000Y4000D02*
X139500D01*
X140500Y5000D01*
Y9196D01*
X81167Y47167D02*
X85500Y51500D01*
X81167Y42356D02*
Y47167D01*
X139000Y10696D02*
Y14500D01*
Y10696D02*
X140500Y9196D01*
X98051Y5906D02*
X113912D01*
X138586Y36552D02*
X141448D01*
X138000Y34143D02*
Y35966D01*
X138586Y36552D01*
X136360Y32503D02*
X138000Y34143D01*
X134898Y32503D02*
X136360D01*
X142752Y32752D02*
Y35249D01*
X141000Y27588D02*
Y31000D01*
X142752Y32752D01*
X133894Y31500D02*
X134898Y32503D01*
X131071Y31500D02*
X133894D01*
X130779Y31793D02*
X131071Y31500D01*
X138028Y19528D02*
X146602D01*
X145024Y21105D02*
Y23564D01*
X141000Y27588D02*
X145024Y23564D01*
X146602Y19528D02*
X149606D01*
X145024Y21105D02*
X146602Y19528D01*
X141448Y36552D02*
X142752Y35249D01*
X44500Y54500D02*
X50500D01*
X55000Y41734D02*
Y50000D01*
X50500Y54500D02*
X55000Y50000D01*
X50390Y37124D02*
X55000Y41734D01*
X50390Y26503D02*
Y37124D01*
X47500Y18279D02*
Y21500D01*
Y18279D02*
X48379Y17400D01*
X47500Y21500D02*
X50300Y24300D01*
X34500Y24500D02*
X45000Y14000D01*
X50300Y26413D02*
X50390Y26503D01*
X50300Y24300D02*
Y26413D01*
X81278Y42356D02*
X81859Y41774D01*
Y41693D02*
Y41774D01*
X81167Y42356D02*
X81278D01*
X133500Y15000D02*
X138028Y19528D01*
X63283Y47088D02*
Y48146D01*
Y47088D02*
X63401Y46969D01*
X64005Y43972D02*
X65016Y42961D01*
X61598Y49830D02*
X63283Y48146D01*
X64005Y43972D02*
Y45684D01*
X63818Y45870D02*
Y46783D01*
Y45870D02*
X64005Y45684D01*
X65016Y41984D02*
Y42961D01*
X61598Y49830D02*
Y51902D01*
X65016Y41984D02*
X67100Y39900D01*
X78577D01*
X80944Y42267D01*
X81079D01*
X58000Y55500D02*
X61598Y51902D01*
X98051Y5906D02*
Y6693D01*
X91000Y13744D02*
X98051Y6693D01*
X77676Y7379D02*
X78483Y8186D01*
X77676Y7000D02*
Y7379D01*
X34500Y24500D02*
Y37000D01*
Y22000D02*
Y24500D01*
X81079Y42267D02*
X81167Y42356D01*
X26279Y11811D02*
X26910D01*
X28169Y13070D02*
Y15669D01*
X26910Y11811D02*
X28169Y13070D01*
Y15669D02*
X34500Y22000D01*
X26279Y47244D02*
X26883D01*
X28141Y43359D02*
Y45986D01*
X26883Y47244D02*
X28141Y45986D01*
Y43359D02*
X34500Y37000D01*
D66*
X51000Y3000D02*
X52580Y1420D01*
X146920D02*
X149606Y4106D01*
X52580Y1420D02*
X146920D01*
X33500Y3000D02*
X51000D01*
X16000Y48079D02*
Y52000D01*
X19500Y55500D01*
X16000Y48079D02*
X19500Y44579D01*
Y55500D02*
X34500D01*
X19500Y38000D02*
Y44579D01*
Y20000D02*
Y38000D01*
X149606Y4106D02*
Y9528D01*
D67*
X98051Y5906D02*
D03*
X93051D02*
D03*
X88051D02*
D03*
D68*
X83051D02*
D03*
D69*
X26279Y47245D02*
D03*
X26279Y11811D02*
D03*
D70*
X9940Y11811D02*
D03*
X9940Y47244D02*
D03*
D71*
X24310Y18149D02*
D03*
Y40905D02*
D03*
D72*
X49679Y47471D02*
D03*
X48000Y29521D02*
D03*
X19000Y50044D02*
D03*
X49965Y43500D02*
D03*
X119000Y55900D02*
D03*
X133000Y44500D02*
D03*
X146000Y45320D02*
D03*
X140100Y43500D02*
D03*
X109991Y52963D02*
D03*
X112204Y49704D02*
D03*
X103000Y52000D02*
D03*
X106041Y53521D02*
D03*
X103992Y47548D02*
D03*
X125000Y6500D02*
D03*
X5500Y29500D02*
D03*
Y24000D02*
D03*
X128000Y40000D02*
D03*
X81201Y33818D02*
D03*
X78500Y36000D02*
D03*
X81649Y37283D02*
D03*
X74500Y36400D02*
D03*
X103083Y42066D02*
D03*
X53000Y15000D02*
D03*
X58200D02*
D03*
X51915Y11192D02*
D03*
X46000Y11000D02*
D03*
X121422Y47967D02*
D03*
X116443Y51665D02*
D03*
X117557Y48453D02*
D03*
X93468Y39235D02*
D03*
X98500Y33000D02*
D03*
X101500Y28000D02*
D03*
X95000Y42336D02*
D03*
X100000Y43500D02*
D03*
X92000Y18300D02*
D03*
X61173Y32445D02*
D03*
X64662Y26609D02*
D03*
X70500Y30500D02*
D03*
X74500Y27500D02*
D03*
X51035Y20071D02*
D03*
X134500Y6500D02*
D03*
X93075Y50000D02*
D03*
X85500Y51500D02*
D03*
X139000Y14500D02*
D03*
X142500Y15000D02*
D03*
X140295Y33987D02*
D03*
X132274Y34620D02*
D03*
X55000Y4500D02*
D03*
X72803Y46470D02*
D03*
X76000Y45311D02*
D03*
X81859Y41693D02*
D03*
X73500Y42200D02*
D03*
X69426Y45763D02*
D03*
X80409Y28140D02*
D03*
X133500Y15000D02*
D03*
X63401Y46969D02*
D03*
X62104Y41834D02*
D03*
X34500Y55500D02*
D03*
X19500Y38000D02*
D03*
Y20000D02*
D03*
X58000Y55500D02*
D03*
X77676Y7000D02*
D03*
X111554Y39635D02*
D03*
X122539Y40961D02*
D03*
X44500Y54500D02*
D03*
X33500Y3000D02*
D03*
X18500Y9000D02*
D03*
X34500Y24500D02*
D03*
D73*
X47867Y47314D02*
D03*
M02*
