G04*
G04 #@! TF.GenerationSoftware,Altium Limited,Altium Designer,22.1.2 (22)*
G04*
G04 Layer_Color=65535*
%FSLAX25Y25*%
%MOIN*%
G70*
G04*
G04 #@! TF.SameCoordinates,32997ABC-C250-4A50-851A-9512557143E5*
G04*
G04*
G04 #@! TF.FilePolarity,Positive*
G04*
G01*
G75*
%ADD10C,0.00984*%
%ADD11C,0.00787*%
%ADD12C,0.02362*%
%ADD13C,0.00600*%
%ADD14C,0.00700*%
%ADD15C,0.00598*%
%ADD16C,0.00800*%
D10*
X33563Y45079D02*
G03*
X33563Y45079I-492J0D01*
G01*
X64126Y913D02*
G03*
X64126Y913I-492J0D01*
G01*
X88090Y23031D02*
G03*
X88090Y23031I-492J0D01*
G01*
D11*
X120275Y46654D02*
G03*
X120275Y46654I-394J0D01*
G01*
X42913Y51968D02*
X46063D01*
Y49213D02*
Y51968D01*
X34252D02*
X37402D01*
X34252Y49213D02*
Y51968D01*
X56744Y2094D02*
X59500D01*
X56744D02*
Y5244D01*
Y13905D02*
X59500D01*
X56744Y10756D02*
Y13905D01*
X82480Y25787D02*
Y47441D01*
X60827Y25787D02*
Y47441D01*
Y25787D02*
X82480D01*
X60827Y47441D02*
X82480D01*
D12*
X79724Y29724D02*
G03*
X79724Y29724I-1181J0D01*
G01*
D13*
X41559Y10236D02*
G03*
X40059Y10236I-750J0D01*
G01*
X38559D02*
G03*
X40059Y10236I750J0D01*
G01*
X114961Y4110D02*
G03*
X114961Y5610I0J750D01*
G01*
Y7110D02*
G03*
X114961Y5610I0J-750D01*
G01*
X50331Y30921D02*
Y41521D01*
X45731Y30921D02*
X50331D01*
X47056Y36621D02*
X49056D01*
X47056D02*
X48056Y35621D01*
X49056Y36621D01*
X45731Y30921D02*
Y41521D01*
X50331D01*
X46531Y30121D02*
X49531D01*
X117785Y16672D02*
Y24272D01*
X121585D01*
Y16672D02*
Y24272D01*
X117785Y16672D02*
X121585D01*
X118247Y11092D02*
X125847D01*
X118247D02*
Y14892D01*
X125847D01*
Y11092D02*
Y14892D01*
X120201Y43899D02*
X126181Y43898D01*
X97441D02*
X103386D01*
X126181Y39961D02*
Y46826D01*
X97441Y54945D02*
Y58858D01*
X126181D01*
Y54945D02*
Y58858D01*
X97441Y39961D02*
X126181D01*
X97441D02*
Y46826D01*
X127634Y13186D02*
X130634D01*
X126834Y1786D02*
X131434D01*
Y12386D01*
X128109Y6686D02*
X129109Y7686D01*
X130109Y6686D01*
X128109D02*
X130109D01*
X126834Y12386D02*
X131434D01*
X126834Y1786D02*
Y12386D01*
X126834Y14385D02*
Y24985D01*
X131434D01*
X128109Y19285D02*
X130109D01*
X129109Y20285D02*
X130109Y19285D01*
X128109D02*
X129109Y20285D01*
X131434Y14385D02*
Y24985D01*
X126834Y14385D02*
X131434D01*
X127634Y25785D02*
X130634D01*
X141926Y54090D02*
Y57090D01*
X130526Y53290D02*
Y57890D01*
Y53290D02*
X141126D01*
X135426Y56615D02*
X136426Y55615D01*
X135426Y54615D02*
X136426Y55615D01*
X135426Y54615D02*
Y56615D01*
X141126Y53290D02*
Y57890D01*
X130526D02*
X141126D01*
X112736Y20547D02*
Y23547D01*
X107736Y20547D02*
Y23547D01*
X106236Y22047D02*
X107736D01*
X106236Y20547D02*
Y22047D01*
X112736D02*
X114236D01*
Y24047D01*
X106236Y20047D02*
Y20547D01*
X111236D02*
Y23547D01*
X109236Y20547D02*
X111236D01*
X109236D02*
Y23547D01*
X111236D01*
X116536Y12204D02*
Y31889D01*
X115893Y12204D02*
X116536D01*
X115894Y31889D02*
X116536D01*
X103938D02*
X104579D01*
X103938Y12204D02*
X104581D01*
X103938D02*
Y31889D01*
X95551Y1181D02*
Y10905D01*
X90551Y905D02*
Y10630D01*
X85551Y905D02*
Y10905D01*
X80051Y905D02*
Y10905D01*
Y905D02*
X101051D01*
Y10905D01*
X80051D02*
X101051D01*
X80051Y2905D02*
X82051Y905D01*
X89746Y23394D02*
X92291Y20848D01*
X88017Y21665D02*
X89746Y23394D01*
X90563Y19119D02*
X92291Y20848D01*
X84874Y18522D02*
X87420Y15976D01*
X89148Y17705D01*
X84874Y18522D02*
X86603Y20251D01*
X67885Y9350D02*
X71485D01*
X67885Y6905D02*
Y9350D01*
X71485Y6905D02*
Y9350D01*
X67885Y2461D02*
X71485D01*
Y4905D01*
X67885Y2461D02*
Y4905D01*
X119193Y34814D02*
Y38414D01*
X116748D02*
X119193D01*
X116748Y34814D02*
X119193D01*
X112303D02*
Y38414D01*
Y34814D02*
X114748D01*
X112303Y38414D02*
X114748D01*
X36358Y19360D02*
Y23160D01*
Y19360D02*
X43957D01*
Y23160D01*
X36358D02*
X43957D01*
X24114Y52531D02*
Y56131D01*
Y52531D02*
X26559D01*
X24114Y56131D02*
X26559D01*
X31004Y52531D02*
Y56131D01*
X28559D02*
X31004D01*
X28559Y52531D02*
X31004D01*
X24114Y2924D02*
Y6524D01*
Y2924D02*
X26559D01*
X24114Y6524D02*
X26559D01*
X31004Y2924D02*
Y6524D01*
X28559D02*
X31004D01*
X28559Y2924D02*
X31004D01*
X22698Y2824D02*
Y6624D01*
X15098D02*
X22698D01*
X15098Y2824D02*
Y6624D01*
Y2824D02*
X22698D01*
X94122Y51878D02*
Y55478D01*
X91678D02*
X94122D01*
X91678Y51878D02*
X94122D01*
X87233D02*
Y55478D01*
Y51878D02*
X89678D01*
X87233Y55478D02*
X89678D01*
X51791Y21663D02*
X54337Y24209D01*
X51791Y21663D02*
X53520Y19934D01*
X54337Y24209D02*
X56066Y22480D01*
X56663Y16791D02*
X59209Y19337D01*
X57480Y21066D02*
X59209Y19337D01*
X54934Y18520D02*
X56663Y16791D01*
X52531Y50099D02*
X56131D01*
Y52543D01*
X52531Y50099D02*
Y52543D01*
Y56988D02*
X56131D01*
X52531Y54543D02*
Y56988D01*
X56131Y54543D02*
Y56988D01*
X72216Y9350D02*
X75816D01*
X72216Y6905D02*
Y9350D01*
X75816Y6905D02*
Y9350D01*
X72216Y2461D02*
X75816D01*
Y4905D01*
X72216Y2461D02*
Y4905D01*
X43957Y28809D02*
Y32609D01*
X36358D02*
X43957D01*
X36358Y28809D02*
Y32609D01*
Y28809D02*
X43957D01*
X46332Y9336D02*
X47932Y10936D01*
X46031D02*
X50032D01*
X48131D02*
X49832Y9336D01*
X46332D02*
X49832D01*
X47032Y9736D02*
X48731Y9636D01*
X48131Y10336D02*
X48731Y9636D01*
X47532Y10136D02*
X48131Y10336D01*
X36220Y2165D02*
Y18307D01*
X43996Y2165D02*
Y18307D01*
X22698Y52431D02*
Y56231D01*
X15098D02*
X22698D01*
X15098Y52431D02*
Y56231D01*
Y52431D02*
X22698D01*
X43957Y24084D02*
Y27884D01*
X36358D02*
X43957D01*
X36358Y24084D02*
Y27884D01*
Y24084D02*
X43957D01*
Y33533D02*
Y37333D01*
X36358D02*
X43957D01*
X36358Y33533D02*
Y37333D01*
Y33533D02*
X43957D01*
X6042Y52431D02*
Y56231D01*
Y52431D02*
X13643D01*
Y56231D01*
X6042D02*
X13643D01*
X6042Y2824D02*
Y6624D01*
Y2824D02*
X13643D01*
Y6624D01*
X6042D02*
X13643D01*
X106890Y9449D02*
X123031D01*
X106890Y1673D02*
X123031D01*
X47706Y57343D02*
X51506D01*
X47706Y49743D02*
Y57343D01*
Y49743D02*
X51506D01*
Y57343D01*
X102225Y34714D02*
Y38514D01*
X94625D02*
X102225D01*
X94625Y34714D02*
Y38514D01*
Y34714D02*
X102225D01*
X110887D02*
Y38514D01*
X103287D02*
X110887D01*
X103287Y34714D02*
Y38514D01*
Y34714D02*
X110887D01*
X127816D02*
Y38514D01*
X120216D02*
X127816D01*
X120216Y34714D02*
Y38514D01*
Y34714D02*
X127816D01*
X188728Y8150D02*
X190106Y9528D01*
X188189Y8150D02*
X188728D01*
Y10905D02*
X190106Y9528D01*
X188189Y10905D02*
X188728D01*
X157606Y4528D02*
Y6528D01*
X159606D01*
Y7528D01*
Y12528D01*
X157606D02*
X159606D01*
X157606D02*
Y14528D01*
Y4528D02*
X167606D01*
Y14528D01*
Y10905D02*
X188189D01*
X167606Y8150D02*
X188189D01*
X188728Y28150D02*
X190106Y29528D01*
X188189Y28150D02*
X188728D01*
Y30906D02*
X190106Y29528D01*
X188189Y30906D02*
X188728D01*
X157606Y24528D02*
Y26528D01*
X159606D01*
Y27528D01*
Y32528D01*
X157606D02*
X159606D01*
X157606D02*
Y34528D01*
X167606Y24528D02*
Y34528D01*
Y30906D02*
X188189D01*
X167606Y28150D02*
X188189D01*
X167606Y38150D02*
X188189D01*
X167606Y40905D02*
X188189D01*
X167606Y34528D02*
Y44528D01*
X157606Y42528D02*
Y44528D01*
Y42528D02*
X159606D01*
Y37528D02*
Y42528D01*
Y36528D02*
Y37528D01*
X157606Y36528D02*
X159606D01*
X157606Y34528D02*
Y36528D01*
X188189Y40905D02*
X188728D01*
X190106Y39528D01*
X188189Y38150D02*
X188728D01*
X190106Y39528D01*
X188728Y48150D02*
X190106Y49528D01*
X188189Y48150D02*
X188728D01*
Y50906D02*
X190106Y49528D01*
X188189Y50906D02*
X188728D01*
X157606Y44528D02*
Y46528D01*
X159606D01*
Y47528D01*
Y52528D01*
X157606D02*
X159606D01*
X157606D02*
Y54528D01*
X167606Y44528D02*
Y54528D01*
X157606D02*
X167606D01*
Y50906D02*
X188189D01*
X167606Y48150D02*
X188189D01*
X167606Y18150D02*
X188189D01*
X167606Y20906D02*
X188189D01*
X167606Y14528D02*
Y24528D01*
X157606Y22528D02*
Y24528D01*
Y22528D02*
X159606D01*
Y17528D02*
Y22528D01*
Y16528D02*
Y17528D01*
X157606Y16528D02*
X159606D01*
X157606Y14528D02*
Y16528D01*
X188189Y20906D02*
X188728D01*
X190106Y19528D01*
X188189Y18150D02*
X188728D01*
X190106Y19528D01*
X14780Y11585D02*
X20849D01*
X-296D02*
X5101D01*
X14754Y47244D02*
X20874D01*
X30511Y14345D02*
Y14493D01*
Y14838D01*
Y44217D02*
Y44711D01*
X-296Y11585D02*
Y47244D01*
X5126D01*
X75454Y11092D02*
Y14892D01*
X67853D02*
X75454D01*
X67853Y11092D02*
Y14892D01*
Y11092D02*
X75454D01*
X46132Y28209D02*
X49931D01*
X46132Y20609D02*
Y28209D01*
Y20609D02*
X49931D01*
Y28209D01*
X103013Y11486D02*
Y15286D01*
X95413D02*
X103013D01*
X95413Y11486D02*
Y15286D01*
Y11486D02*
X103013D01*
X95413Y17391D02*
Y21191D01*
Y17391D02*
X103013D01*
Y21191D01*
X95413D02*
X103013D01*
X93996Y11586D02*
Y15186D01*
X91551D02*
X93996D01*
X91551Y11586D02*
X93996D01*
X87106D02*
Y15186D01*
Y11586D02*
X89551D01*
X87106Y15186D02*
X89551D01*
X95768Y22610D02*
Y26209D01*
Y22610D02*
X98213D01*
X95768Y26209D02*
X98213D01*
X102657Y22610D02*
Y26209D01*
X100213D02*
X102657D01*
X100213Y22610D02*
X102657D01*
X85690Y11486D02*
Y15286D01*
X78090D02*
X85690D01*
X78090Y11486D02*
Y15286D01*
Y11486D02*
X85690D01*
X117785Y26121D02*
X121585D01*
Y33721D01*
X117785D02*
X121585D01*
X117785Y26121D02*
Y33721D01*
D14*
X46832Y18536D02*
X49332D01*
X51032Y16836D01*
Y13636D02*
Y16836D01*
X45031Y13636D02*
Y16736D01*
X46832Y18536D01*
X45031Y1936D02*
Y7136D01*
X51032Y1936D02*
Y7136D01*
X45031Y1936D02*
X51032D01*
D15*
X36220Y2165D02*
X43996D01*
X36220Y18307D02*
X43996D01*
X106890Y1673D02*
Y9449D01*
X123031Y1673D02*
Y9449D01*
D16*
X129736Y51927D02*
X132935D01*
X131335D01*
Y47128D01*
X134534Y51927D02*
Y47128D01*
X136934D01*
X137733Y47928D01*
Y51127D01*
X136934Y51927D01*
X134534D01*
X139333D02*
X140932D01*
X140132D01*
Y47128D01*
X139333D01*
X140932D01*
X132935Y21927D02*
X136134D01*
X134534D01*
Y17128D01*
X137733Y21927D02*
X140932Y17128D01*
Y21927D02*
X137733Y17128D01*
X128136Y41927D02*
X131335D01*
X129736D01*
Y37128D01*
X132935Y41927D02*
Y37128D01*
X135334D01*
X136134Y37928D01*
Y41127D01*
X135334Y41927D01*
X132935D01*
X140132D02*
X138533D01*
X137733Y41127D01*
Y37928D01*
X138533Y37128D01*
X140132D01*
X140932Y37928D01*
Y41127D01*
X140132Y41927D01*
X128136Y27128D02*
Y31927D01*
X130536D01*
X131335Y31127D01*
Y29528D01*
X130536Y28728D01*
X128136D01*
X129736D02*
X131335Y27128D01*
X136134Y31127D02*
X135334Y31927D01*
X133735D01*
X132935Y31127D01*
Y30327D01*
X133735Y29528D01*
X135334D01*
X136134Y28728D01*
Y27928D01*
X135334Y27128D01*
X133735D01*
X132935Y27928D01*
X137733Y31927D02*
X140932D01*
X139333D01*
Y27128D01*
X132935Y7128D02*
Y11927D01*
X135334D01*
X136134Y11127D01*
Y9528D01*
X135334Y8728D01*
X132935D01*
X134534D02*
X136134Y7128D01*
X137733Y11927D02*
X140932Y7128D01*
Y11927D02*
X137733Y7128D01*
M02*
