M48
;Layer_Color=9474304
;FILE_FORMAT=2:5
INCH,LZ
;TYPE=PLATED
T1F00S00C0.01200
T2F00S00C0.02362
;TYPE=NON_PLATED
T5F00S00C0.02953
%
T01
X00185Y0009
X00195Y002
X00055Y0024
Y00295
X00195Y0038
X0019Y0050044
X00345Y00555
X00445Y00545
X0049679Y0047471
X0049965Y00435
X0062104Y0041834
X0063401Y0046969
X0069426Y0045763
X0072803Y004647
X0076Y0045311
X00735Y00422
X00745Y00364
X00785Y0036
X0081649Y0037283
X0081201Y0033818
X0080409Y002814
X00745Y00275
X00705Y00305
X0064662Y0026609
X0061173Y0032445
X0048Y0029521
X0051035Y0020071
X0053Y0015
X0051915Y0011192
X0046Y0011
X0055Y00045
X00582Y0015
X0077676Y0007
X0092Y00183
X01015Y0028
X00985Y0033
X0093468Y0039235
X0095Y0042336
X01Y00435
X0103083Y0042066
X0103992Y0047548
X0103Y0052
X0106041Y0053521
X0109991Y0052963
X0112204Y0049704
X0116443Y0051665
X0117557Y0048453
X0121422Y0047967
X0122539Y0040961
X0128Y004
X0133Y00445
X01401Y00435
X0146Y004532
X0140295Y0033987
X0132274Y003462
X01335Y0015
X0139Y00145
X01425Y0015
X01345Y00065
X0125
X0111554Y0039635
X0119Y00559
X0093075Y005
X00855Y00515
X0081859Y0041693
X0058Y00555
X00345Y00245
X00335Y0003
T02
X0083051Y0005906
X0088051
X0093051
X0098051
T05
X002431Y0018149
Y0040905
M30
