G04*
G04 #@! TF.GenerationSoftware,Altium Limited,Altium Designer,22.1.2 (22)*
G04*
G04 Layer_Physical_Order=1*
G04 Layer_Color=255*
%FSLAX25Y25*%
%MOIN*%
G70*
G04*
G04 #@! TF.SameCoordinates,32997ABC-C250-4A50-851A-9512557143E5*
G04*
G04*
G04 #@! TF.FilePolarity,Positive*
G04*
G01*
G75*
%ADD13C,0.00600*%
%ADD16C,0.00800*%
%ADD17R,0.02362X0.05118*%
%ADD18R,0.03000X0.03000*%
%ADD19R,0.02165X0.02362*%
%ADD20R,0.02362X0.02165*%
%ADD21R,0.04724X0.06299*%
%ADD22R,0.01181X0.03543*%
%ADD23R,0.03000X0.03000*%
%ADD24R,0.05118X0.02362*%
%ADD25R,0.09449X0.08661*%
%ADD26O,0.07087X0.01181*%
%ADD27O,0.01181X0.07087*%
G04:AMPARAMS|DCode=28|XSize=23.62mil|YSize=21.65mil|CornerRadius=0mil|HoleSize=0mil|Usage=FLASHONLY|Rotation=45.000|XOffset=0mil|YOffset=0mil|HoleType=Round|Shape=Rectangle|*
%AMROTATEDRECTD28*
4,1,4,-0.00070,-0.01601,-0.01601,-0.00070,0.00070,0.01601,0.01601,0.00070,-0.00070,-0.01601,0.0*
%
%ADD28ROTATEDRECTD28*%

G04:AMPARAMS|DCode=29|XSize=23.62mil|YSize=21.65mil|CornerRadius=0mil|HoleSize=0mil|Usage=FLASHONLY|Rotation=135.000|XOffset=0mil|YOffset=0mil|HoleType=Round|Shape=Rectangle|*
%AMROTATEDRECTD29*
4,1,4,0.01601,-0.00070,0.00070,-0.01601,-0.01601,0.00070,-0.00070,0.01601,0.01601,-0.00070,0.0*
%
%ADD29ROTATEDRECTD29*%

%ADD30R,0.03150X0.03937*%
G04:AMPARAMS|DCode=31|XSize=39.37mil|YSize=31.5mil|CornerRadius=0mil|HoleSize=0mil|Usage=FLASHONLY|Rotation=90.000|XOffset=0mil|YOffset=0mil|HoleType=Round|Shape=Octagon|*
%AMOCTAGOND31*
4,1,8,0.00787,0.01968,-0.00787,0.01968,-0.01575,0.01181,-0.01575,-0.01181,-0.00787,-0.01968,0.00787,-0.01968,0.01575,-0.01181,0.01575,0.01181,0.00787,0.01968,0.0*
%
%ADD31OCTAGOND31*%

%ADD32R,0.05906X0.05256*%
%ADD33R,0.05256X0.05906*%
%ADD34O,0.13780X0.04016*%
%ADD35R,0.13780X0.04016*%
%ADD36R,0.04528X0.01181*%
%ADD37R,0.04520X0.01180*%
%ADD64C,0.01000*%
%ADD65C,0.02000*%
%ADD66C,0.01500*%
%ADD67O,0.03150X0.04724*%
%ADD68R,0.03150X0.04724*%
%ADD69O,0.09055X0.04724*%
%ADD70O,0.07874X0.04724*%
%ADD71C,0.02953*%
%ADD72C,0.02400*%
G36*
X47524Y57595D02*
Y56535D01*
X45792D01*
X45792Y56535D01*
X45484Y56474D01*
X44938Y56700D01*
X44062D01*
X43254Y56365D01*
X42839Y55950D01*
X42339Y56157D01*
Y56906D01*
X37976D01*
Y49787D01*
X37984D01*
X38191Y49287D01*
X37542Y48638D01*
X34236D01*
Y41520D01*
X38598D01*
Y46522D01*
X39692Y47616D01*
X41717D01*
Y43700D01*
X41586Y43613D01*
X41586Y43613D01*
X41234Y43261D01*
X40991Y42897D01*
X40906Y42468D01*
X40906Y42468D01*
Y37516D01*
X36106D01*
Y35436D01*
X34570Y33899D01*
X34371Y33601D01*
X34301Y33250D01*
Y32704D01*
X33801Y32496D01*
X33258Y33040D01*
X32961Y33238D01*
X32694Y33292D01*
Y36039D01*
X32688D01*
Y38007D01*
X32676D01*
Y39945D01*
X32686D01*
Y41036D01*
X32676D01*
Y41157D01*
X29422D01*
Y42036D01*
X32686D01*
Y42217D01*
X29422D01*
Y43217D01*
X32686D01*
Y44307D01*
X30960D01*
X30791Y44807D01*
X30842Y44847D01*
X31381Y45549D01*
X31720Y46367D01*
X31769Y46745D01*
X26279D01*
X20788D01*
X20838Y46367D01*
X21176Y45549D01*
X21715Y44847D01*
X22418Y44308D01*
X23236Y43969D01*
X23900Y43881D01*
X23867Y43382D01*
X23818D01*
X22908Y43005D01*
X22211Y42308D01*
X21834Y41398D01*
Y40413D01*
X22162Y39622D01*
X21938Y39122D01*
X21417D01*
X21365Y39246D01*
X20746Y39865D01*
X19938Y40200D01*
X19062D01*
X18254Y39865D01*
X17635Y39246D01*
X17300Y38438D01*
Y37562D01*
X17635Y36754D01*
X18254Y36135D01*
X18902Y35866D01*
X18803Y35366D01*
X7628D01*
X4518Y38477D01*
Y46880D01*
X5018Y46913D01*
X5090Y46366D01*
X5428Y45548D01*
X5967Y44846D01*
X6670Y44307D01*
X7488Y43968D01*
X8365Y43853D01*
X9440D01*
Y47244D01*
Y50635D01*
X8365D01*
X7488Y50520D01*
X6670Y50181D01*
X5967Y49642D01*
X5428Y48940D01*
X5090Y48122D01*
X5018Y47575D01*
X4518Y47607D01*
Y52720D01*
X5211Y53413D01*
X5791D01*
Y52248D01*
X11213D01*
Y54331D01*
X11713D01*
Y54831D01*
X13894D01*
Y55415D01*
X14356Y55607D01*
X14846Y55116D01*
Y52248D01*
X17385D01*
X17593Y51748D01*
X17135Y51291D01*
X16800Y50482D01*
Y49607D01*
X17135Y48798D01*
X17754Y48179D01*
X18562Y47844D01*
X19438D01*
X20246Y48179D01*
X20376Y48309D01*
X20692Y48181D01*
X20829Y48055D01*
X20788Y47745D01*
X25779D01*
Y50636D01*
X24113D01*
X23236Y50520D01*
X22418Y50181D01*
X21715Y49643D01*
X21700Y49622D01*
X21200Y49792D01*
Y50482D01*
X20865Y51291D01*
X20793Y51362D01*
X20804Y51418D01*
Y52248D01*
X22949D01*
Y56413D01*
X16144D01*
X15086Y57472D01*
X15277Y57934D01*
X33320D01*
X33419Y57434D01*
X33254Y57365D01*
X32635Y56746D01*
X32300Y55938D01*
Y55350D01*
X31610D01*
Y56413D01*
X26189D01*
Y54331D01*
Y52248D01*
X31610D01*
Y53311D01*
X33331D01*
X33721Y53389D01*
X33770Y53421D01*
X34062Y53300D01*
X34938D01*
X35746Y53635D01*
X36365Y54254D01*
X36700Y55062D01*
Y55938D01*
X36365Y56746D01*
X35746Y57365D01*
X35581Y57434D01*
X35680Y57934D01*
X47164D01*
X47524Y57595D01*
D02*
G37*
G36*
X6788Y31915D02*
X6870Y31832D01*
X6581Y31433D01*
X6483Y31474D01*
X6000Y31674D01*
Y30000D01*
X7674D01*
X7365Y30746D01*
X6977Y31134D01*
X6905Y31206D01*
X7158Y31607D01*
X7190Y31629D01*
X7292Y31608D01*
X7519Y31563D01*
X25076D01*
X25160Y31446D01*
X25265Y31063D01*
X24351Y30149D01*
X24152Y29851D01*
X24082Y29500D01*
Y29418D01*
X17330D01*
X16979Y29348D01*
X16681Y29149D01*
X1751Y14219D01*
X1622Y14025D01*
X1122Y14124D01*
Y36874D01*
X1622Y37081D01*
X6788Y31915D01*
D02*
G37*
G36*
X17871Y21482D02*
X17635Y21246D01*
X17300Y20438D01*
Y19562D01*
X17635Y18754D01*
X18254Y18135D01*
X19062Y17800D01*
X19938D01*
X20746Y18135D01*
X21365Y18754D01*
X21372Y18771D01*
X21834Y18642D01*
Y17657D01*
X22211Y16746D01*
X22908Y16050D01*
X23818Y15673D01*
X23854D01*
X23886Y15173D01*
X23236Y15087D01*
X22418Y14748D01*
X21715Y14209D01*
X21177Y13507D01*
X20838Y12689D01*
X20788Y12311D01*
X26279D01*
X31770D01*
X31720Y12689D01*
X31381Y13507D01*
X30842Y14209D01*
X30757Y14275D01*
X30918Y14748D01*
X32692D01*
X33114Y14558D01*
X34124Y13547D01*
X34124Y13547D01*
X34488Y13304D01*
X34917Y13219D01*
X35631D01*
X35838Y12719D01*
X29926Y6807D01*
X26189D01*
Y4724D01*
Y2642D01*
X31300D01*
Y2562D01*
X31635Y1754D01*
X31767Y1622D01*
X31560Y1122D01*
X15331D01*
X15124Y1622D01*
X16144Y2642D01*
X22949D01*
Y6807D01*
X21670D01*
X21615Y7083D01*
X21417Y7381D01*
X20564Y8234D01*
X20700Y8562D01*
Y9438D01*
X20365Y10246D01*
X19746Y10865D01*
X18938Y11200D01*
X18062D01*
X17254Y10865D01*
X16635Y10246D01*
X16300Y9438D01*
Y8562D01*
X16635Y7754D01*
X17082Y7307D01*
X16874Y6807D01*
X14846D01*
Y3940D01*
X14356Y3449D01*
X13894Y3640D01*
Y4224D01*
X11713D01*
Y4724D01*
X11213D01*
Y6807D01*
X5791D01*
Y6660D01*
X5329Y6468D01*
X4918Y6880D01*
Y10042D01*
X5418Y10142D01*
X5429Y10115D01*
X5968Y9413D01*
X6670Y8874D01*
X7488Y8535D01*
X8365Y8420D01*
X9440D01*
Y11811D01*
Y15202D01*
X8365D01*
X8290Y15192D01*
X8056Y15665D01*
X14373Y21982D01*
X17664D01*
X17871Y21482D01*
D02*
G37*
G36*
X79336Y32572D02*
X79955Y31953D01*
X80764Y31618D01*
X81639D01*
X82447Y31953D01*
X82595Y32101D01*
X83056Y31854D01*
X83024Y31693D01*
X83147Y31072D01*
X83390Y30709D01*
X83147Y30345D01*
X83024Y29724D01*
X83147Y29104D01*
X83207Y29014D01*
X83071Y28704D01*
X82542Y28741D01*
X82274Y29387D01*
X81655Y30005D01*
X80847Y30340D01*
X79972D01*
X79163Y30005D01*
X78544Y29387D01*
X78209Y28578D01*
Y27703D01*
X78544Y26894D01*
X79163Y26275D01*
X79972Y25940D01*
X80847D01*
X81643Y26270D01*
X82213Y25701D01*
X82049Y25158D01*
X81860Y25120D01*
X81496Y24877D01*
X81132Y25120D01*
X81012Y25144D01*
Y24287D01*
X80982Y24243D01*
X80858Y23622D01*
Y20669D01*
Y17717D01*
X80982Y17096D01*
X81012Y17051D01*
Y16194D01*
X81132Y16218D01*
X81496Y16461D01*
X81860Y16218D01*
X82480Y16095D01*
X83101Y16218D01*
X83627Y16570D01*
X83979Y17096D01*
X84102Y17717D01*
Y17729D01*
X84602Y17936D01*
X85365Y17174D01*
X86907Y18716D01*
X87614Y18009D01*
X86072Y16467D01*
X86667Y15871D01*
X86500Y15469D01*
X86500D01*
Y13886D01*
X88681D01*
Y13386D01*
X89181D01*
Y11303D01*
X92911D01*
X95411Y8803D01*
X95409Y8381D01*
X94974Y8417D01*
X94888Y8529D01*
X94350Y8942D01*
X93723Y9201D01*
X93051Y9290D01*
X92379Y9201D01*
X91753Y8942D01*
X91215Y8529D01*
X90828Y8025D01*
X90559Y7989D01*
X90543D01*
X90275Y8025D01*
X89887Y8529D01*
X89350Y8942D01*
X88723Y9201D01*
X88051Y9290D01*
X87379Y9201D01*
X86753Y8942D01*
X86215Y8529D01*
X86126Y8414D01*
X85626Y8583D01*
Y9268D01*
X83551D01*
Y5906D01*
X83051D01*
Y5406D01*
X80476D01*
Y2543D01*
X80028Y2418D01*
X76098D01*
Y3535D01*
X74016D01*
Y4535D01*
X76098D01*
Y4813D01*
X76598Y5065D01*
X77239Y4800D01*
X78114D01*
X78923Y5135D01*
X79541Y5754D01*
X79876Y6562D01*
Y7438D01*
X79541Y8246D01*
X78923Y8865D01*
X78114Y9200D01*
X77239D01*
X76764Y9003D01*
X76733Y9009D01*
X76733Y9009D01*
X76098D01*
Y9957D01*
X74394D01*
X74226Y10207D01*
X74024Y10409D01*
X74231Y10909D01*
X75705D01*
Y12492D01*
X73524D01*
Y13492D01*
X75705D01*
Y14254D01*
X75998Y14471D01*
X76205Y14555D01*
X76483Y14500D01*
X77116D01*
X77839Y13777D01*
Y11303D01*
X83260D01*
Y13386D01*
Y15469D01*
X79077D01*
X78933Y15663D01*
X79146Y16215D01*
X79164Y16218D01*
X79528Y16461D01*
X79891Y16218D01*
X80012Y16194D01*
Y17051D01*
X80042Y17096D01*
X80165Y17717D01*
Y20669D01*
Y23622D01*
X80042Y24243D01*
X80012Y24287D01*
Y25144D01*
X79891Y25120D01*
X79528Y24877D01*
X79164Y25120D01*
X78543Y25244D01*
X77923Y25120D01*
X77559Y24877D01*
X77195Y25120D01*
X76575Y25244D01*
X75954Y25120D01*
X75898Y25156D01*
X75861Y25272D01*
X75875Y25764D01*
X76365Y26254D01*
X76674Y27000D01*
X72326D01*
X72635Y26254D01*
X73254Y25635D01*
X73272Y25627D01*
X73126Y25147D01*
X72638Y25244D01*
X72017Y25120D01*
X71653Y24877D01*
X71290Y25120D01*
X70669Y25244D01*
X70049Y25120D01*
X69685Y24877D01*
X69321Y25120D01*
X68701Y25244D01*
X68080Y25120D01*
X67716Y24877D01*
X67353Y25120D01*
X66997Y25191D01*
X66683Y25678D01*
X66677Y25726D01*
X66862Y26172D01*
Y27047D01*
X66527Y27856D01*
X65908Y28474D01*
X65100Y28809D01*
X64225D01*
X63416Y28474D01*
X62797Y27856D01*
X62679Y27571D01*
X61962D01*
X61533Y27486D01*
X61169Y27243D01*
X61169Y27243D01*
X61001Y27074D01*
X60566Y27104D01*
X60453Y27256D01*
X59327D01*
X59282Y27286D01*
X58661Y27409D01*
X55709D01*
Y28102D01*
X58661D01*
X59282Y28226D01*
X59327Y28256D01*
X60184D01*
X60164Y28354D01*
X60163Y28383D01*
X60407Y28906D01*
X60433Y28911D01*
X60730Y29110D01*
X61047Y29427D01*
X62043D01*
X62394Y29497D01*
X62691Y29696D01*
X63078Y30082D01*
X66600D01*
X66831Y29851D01*
X67129Y29652D01*
X67480Y29582D01*
X68499D01*
X68635Y29254D01*
X69254Y28635D01*
X70062Y28300D01*
X70938D01*
X71746Y28635D01*
X72365Y29254D01*
X72700Y30062D01*
Y30938D01*
X72365Y31746D01*
X71829Y32282D01*
X71920Y32673D01*
X71982Y32782D01*
X79249D01*
X79336Y32572D01*
D02*
G37*
G36*
X104512Y23606D02*
X115143D01*
Y20968D01*
X114663Y20488D01*
X104512D01*
Y10085D01*
X96724D01*
X95968Y10841D01*
X96160Y11303D01*
X96842D01*
Y13386D01*
X97843D01*
Y11303D01*
X103264D01*
Y15469D01*
X102000D01*
Y15649D01*
X101930Y16000D01*
X101732Y16297D01*
X101380Y16649D01*
X101291Y16709D01*
X101442Y17209D01*
X103264D01*
Y18791D01*
X101083D01*
Y19291D01*
X100583D01*
Y21374D01*
X95161D01*
X94918Y21773D01*
Y21928D01*
X95161Y22327D01*
X100583D01*
Y24409D01*
X101083D01*
Y24909D01*
X103264D01*
Y26492D01*
X103264Y26492D01*
X103435Y26921D01*
X103674Y27500D01*
X101500D01*
Y28500D01*
X103674D01*
X103564Y28767D01*
X103841Y29182D01*
X104512D01*
Y23606D01*
D02*
G37*
G36*
X129079Y46236D02*
X127207Y44364D01*
X126964Y44000D01*
X126878Y43571D01*
X126878Y43571D01*
Y41917D01*
X126754Y41865D01*
X126135Y41246D01*
X125800Y40438D01*
Y39913D01*
X125292Y39404D01*
X125048Y39040D01*
X124980Y38697D01*
X124040D01*
X124022Y38725D01*
X123887Y39197D01*
X124404Y39714D01*
X124739Y40523D01*
Y41398D01*
X124404Y42207D01*
X123786Y42826D01*
X122977Y43161D01*
X122102D01*
X121293Y42826D01*
X120791Y42324D01*
X120291Y42489D01*
Y43103D01*
X118701D01*
Y44103D01*
X120291D01*
Y45604D01*
X120707Y45882D01*
X120985Y45767D01*
X121860D01*
X122669Y46102D01*
X123287Y46721D01*
X123294Y46736D01*
X128872D01*
X129079Y46236D01*
D02*
G37*
G36*
X130326Y53090D02*
X131705D01*
Y48862D01*
X129847Y47004D01*
X129347Y47211D01*
Y55035D01*
X122622D01*
Y54329D01*
X122160Y54137D01*
X121093Y55204D01*
X121200Y55462D01*
Y56338D01*
X121064Y56667D01*
X121342Y57082D01*
X130326D01*
Y53090D01*
D02*
G37*
%LPC*%
G36*
X25189Y56413D02*
X23508D01*
Y54831D01*
X25189D01*
Y56413D01*
D02*
G37*
G36*
Y53831D02*
X23508D01*
Y52248D01*
X25189D01*
Y53831D01*
D02*
G37*
G36*
X13894D02*
X12213D01*
Y52248D01*
X13894D01*
Y53831D01*
D02*
G37*
G36*
X28444Y50636D02*
X26779D01*
Y47745D01*
X31769D01*
X31720Y48122D01*
X31381Y48940D01*
X30842Y49643D01*
X30140Y50181D01*
X29322Y50520D01*
X28444Y50636D01*
D02*
G37*
G36*
X11515Y50635D02*
X10440D01*
Y47744D01*
X14840D01*
X14791Y48122D01*
X14452Y48940D01*
X13913Y49642D01*
X13210Y50181D01*
X12393Y50520D01*
X11515Y50635D01*
D02*
G37*
G36*
X14840Y46744D02*
X10440D01*
Y43853D01*
X11515D01*
X12393Y43968D01*
X13210Y44307D01*
X13913Y44846D01*
X14452Y45548D01*
X14791Y46366D01*
X14840Y46744D01*
D02*
G37*
G36*
X5000Y31674D02*
X4254Y31365D01*
X3635Y30746D01*
X3326Y30000D01*
X5000D01*
Y31674D01*
D02*
G37*
G36*
X7674Y29000D02*
X6000D01*
Y27326D01*
X6746Y27635D01*
X7365Y28254D01*
X7674Y29000D01*
D02*
G37*
G36*
X5000D02*
X3326D01*
X3635Y28254D01*
X4254Y27635D01*
X5000Y27326D01*
Y29000D01*
D02*
G37*
G36*
X6000Y26174D02*
Y24500D01*
X7674D01*
X7365Y25246D01*
X6746Y25865D01*
X6000Y26174D01*
D02*
G37*
G36*
X5000D02*
X4254Y25865D01*
X3635Y25246D01*
X3326Y24500D01*
X5000D01*
Y26174D01*
D02*
G37*
G36*
X7674Y23500D02*
X6000D01*
Y21826D01*
X6746Y22135D01*
X7365Y22754D01*
X7674Y23500D01*
D02*
G37*
G36*
X5000D02*
X3326D01*
X3635Y22754D01*
X4254Y22135D01*
X5000Y21826D01*
Y23500D01*
D02*
G37*
G36*
X11515Y15202D02*
X10440D01*
Y12311D01*
X14841D01*
X14791Y12688D01*
X14452Y13506D01*
X13913Y14209D01*
X13211Y14748D01*
X12393Y15086D01*
X11515Y15202D01*
D02*
G37*
G36*
X31770Y11311D02*
X26779D01*
Y8420D01*
X28444D01*
X29322Y8536D01*
X30140Y8874D01*
X30842Y9413D01*
X31381Y10116D01*
X31720Y10934D01*
X31770Y11311D01*
D02*
G37*
G36*
X25779D02*
X20788D01*
X20838Y10934D01*
X21177Y10116D01*
X21715Y9413D01*
X22418Y8874D01*
X23236Y8536D01*
X24114Y8420D01*
X25779D01*
Y11311D01*
D02*
G37*
G36*
X14841Y11311D02*
X10440D01*
Y8420D01*
X11515D01*
X12393Y8535D01*
X13211Y8874D01*
X13913Y9413D01*
X14452Y10115D01*
X14791Y10933D01*
X14841Y11311D01*
D02*
G37*
G36*
X13894Y6807D02*
X12213D01*
Y5224D01*
X13894D01*
Y6807D01*
D02*
G37*
G36*
X25189D02*
X23508D01*
Y5224D01*
X25189D01*
Y6807D01*
D02*
G37*
G36*
Y4224D02*
X23508D01*
Y2642D01*
X25189D01*
Y4224D01*
D02*
G37*
G36*
X75000Y29674D02*
Y28000D01*
X76674D01*
X76365Y28746D01*
X75746Y29365D01*
X75000Y29674D01*
D02*
G37*
G36*
X74000D02*
X73254Y29365D01*
X72635Y28746D01*
X72326Y28000D01*
X74000D01*
Y29674D01*
D02*
G37*
G36*
X85941Y15469D02*
X84260D01*
Y13886D01*
X85941D01*
Y15469D01*
D02*
G37*
G36*
X88181Y12886D02*
X86500D01*
Y11303D01*
X88181D01*
Y12886D01*
D02*
G37*
G36*
X85941D02*
X84260D01*
Y11303D01*
X85941D01*
Y12886D01*
D02*
G37*
G36*
X82551Y9268D02*
X80476D01*
Y6406D01*
X82551D01*
Y9268D01*
D02*
G37*
G36*
X103264Y23910D02*
X101583D01*
Y22327D01*
X103264D01*
Y23910D01*
D02*
G37*
G36*
X101583Y21374D02*
Y19791D01*
X103264D01*
Y21374D01*
X101583D01*
D02*
G37*
%LPD*%
D13*
X47579Y39674D02*
Y49547D01*
X55694Y47456D02*
X55709Y47441D01*
X47579Y39674D02*
X48031Y39221D01*
X49679Y47471D02*
X49694Y47456D01*
X47579Y49547D02*
X49606Y51575D01*
X49694Y47456D02*
X55694D01*
X49965Y43283D02*
X51000Y42248D01*
Y35278D02*
Y42248D01*
X49965Y43283D02*
Y43500D01*
X51000Y35278D02*
X52616Y33661D01*
X48000Y26311D02*
X48031Y26280D01*
X48000Y26311D02*
Y29521D01*
X7248Y34449D02*
X29430D01*
X3600Y38097D02*
X7248Y34449D01*
X7519Y32481D02*
X29421D01*
X2000Y38000D02*
Y55500D01*
Y38000D02*
X7519Y32481D01*
X3600Y38097D02*
Y53100D01*
X33619Y29619D02*
Y31381D01*
X29511Y32391D02*
X32609D01*
X33619Y31381D01*
X4000Y57500D02*
X13760D01*
X2000Y55500D02*
X4000Y57500D01*
X19000Y50044D02*
Y50531D01*
X19887Y51418D01*
Y53548D01*
X52616Y33661D02*
X55709D01*
X110521Y58000D02*
X141648D01*
X142000Y52500D02*
Y57648D01*
X138630Y49130D02*
X142000Y52500D01*
X141648Y58000D02*
X142000Y57648D01*
X119000Y55900D02*
X119100D01*
X106041Y53521D02*
X110521Y58000D01*
X119100Y55900D02*
X122000Y53000D01*
X134226Y51405D02*
X137134Y54312D01*
X133000Y44500D02*
Y44987D01*
X134226Y46213D02*
Y51405D01*
X133000Y44987D02*
X134226Y46213D01*
X138630Y46000D02*
Y49130D01*
X121539Y21461D02*
X125396Y17604D01*
X129134D01*
X120468Y21461D02*
X121539D01*
X119685Y22244D02*
X120468Y21461D01*
X119685Y22244D02*
Y22343D01*
X146000Y45320D02*
Y47820D01*
X147708Y49528D01*
X138000Y45370D02*
X138630Y46000D01*
X138000Y40000D02*
Y45370D01*
X140426Y43500D02*
X144398Y39528D01*
X140100Y43500D02*
X140426D01*
X144398Y39528D02*
X149606D01*
X106062Y53500D02*
X106386Y53176D01*
X109991Y52963D02*
X110238Y53210D01*
X112400D01*
X113945Y51665D01*
X116443D01*
X112204Y49704D02*
X112543Y49365D01*
X106386Y52553D02*
Y53176D01*
X103351Y52000D02*
X104252Y51100D01*
X110827Y43603D02*
Y46415D01*
X104252Y51100D02*
X106141D01*
X110827Y46415D01*
X103000Y52000D02*
X103351D01*
X105644Y49900D02*
X108767Y46777D01*
Y43693D02*
Y46777D01*
X103375Y49900D02*
X105644D01*
X106386Y52553D02*
X112794Y46144D01*
X112543Y49365D02*
X113635D01*
X112794Y43603D02*
Y46144D01*
X101892Y48418D02*
X103375Y49900D01*
X102511Y45636D02*
X103992Y47118D01*
X100373Y46836D02*
X101892Y48356D01*
X103992Y47118D02*
Y47548D01*
X93269Y46836D02*
X100373D01*
X101892Y48356D02*
Y48418D01*
X92496Y45636D02*
X102511D01*
X122000Y50567D02*
Y53000D01*
X121700Y50267D02*
X122000Y50567D01*
X121700Y48245D02*
Y50267D01*
X137626Y54312D02*
X138826Y55512D01*
X137134Y54312D02*
X137626D01*
X120177Y12992D02*
X120276D01*
X121058Y12209D01*
X122969Y10200D02*
X124300D01*
X121058Y12111D02*
Y12209D01*
Y12111D02*
X122969Y10200D01*
X128365Y5286D02*
X128925Y4726D01*
X128365Y5286D02*
Y6135D01*
X128925Y4726D02*
X129774D01*
X130576Y3924D01*
X124300Y10200D02*
X128365Y6135D01*
X126135Y25970D02*
X126292Y26128D01*
X130759D01*
X132790Y28159D01*
X119685Y27953D02*
X121668Y25970D01*
X126135D01*
X62621Y44320D02*
X66180D01*
X68300Y42200D01*
X73500D01*
X64921Y33700D02*
X81083D01*
X81201Y33818D01*
X78300Y36200D02*
Y38100D01*
Y36200D02*
X78500Y36000D01*
X78000Y38400D02*
X78300Y38100D01*
X81853Y37487D02*
X87487D01*
X81649Y37283D02*
X81853Y37487D01*
X87487D02*
X87598Y37598D01*
X78000Y38400D02*
Y40803D01*
X61023Y37598D02*
X64921Y33700D01*
X74500Y36400D02*
Y39000D01*
X4000Y12907D02*
X13993Y22900D01*
X25607D02*
X25869Y22638D01*
X13993Y22900D02*
X25607D01*
X25869Y22638D02*
X29428D01*
X58200Y15000D02*
Y15045D01*
X60827Y17672D02*
Y20669D01*
X58200Y15045D02*
X60827Y17672D01*
X57752Y11500D02*
X59430Y13178D01*
X59678D02*
X62761Y16261D01*
X52223Y11500D02*
X57752D01*
X59430Y13178D02*
X59678D01*
X62761Y16261D02*
Y20635D01*
X62795Y20669D01*
X51915Y11192D02*
X52223Y11500D01*
X46000Y11000D02*
Y13751D01*
X45000Y14751D02*
X46000Y13751D01*
X45000Y14751D02*
Y18386D01*
X121422Y47967D02*
X121700Y48245D01*
X147708Y49528D02*
X149606D01*
X113635Y49365D02*
X116732Y46268D01*
Y43603D02*
Y46268D01*
X100230Y29700D02*
X100630Y30100D01*
X98024Y23910D02*
Y29649D01*
X97100Y30900D02*
X99370D01*
X96603Y29700D02*
X100230D01*
X92370Y35630D02*
X97100Y30900D01*
X92642Y33661D02*
X96603Y29700D01*
X99770Y31300D02*
X101300D01*
X98024Y29649D02*
X98075Y29700D01*
X99370Y30900D02*
X99770Y31300D01*
X109073Y30100D02*
X110236Y28937D01*
X100630Y30100D02*
X109073D01*
X87598Y35630D02*
X92370D01*
X87598Y33661D02*
X92642D01*
X93811Y44436D02*
X95870D01*
X87598Y43504D02*
X92879D01*
X91174Y48932D02*
X93269Y46836D01*
X97973Y41547D02*
Y42333D01*
X90691Y47441D02*
X92496Y45636D01*
X92879Y43504D02*
X93811Y44436D01*
X95870D02*
X97973Y42333D01*
Y41547D02*
X99611Y39909D01*
Y37298D02*
Y39909D01*
X82480Y49906D02*
Y50175D01*
X100295Y36614D02*
X105217D01*
X82480Y48177D02*
Y49906D01*
X99611Y37298D02*
X100295Y36614D01*
X96760Y18693D02*
Y19291D01*
X94893Y20074D02*
X96560D01*
X97342Y19291D01*
X92800Y20470D02*
Y25929D01*
X94949Y18149D02*
Y18321D01*
X97097Y16000D02*
X100731D01*
X94949Y18149D02*
X97097Y16000D01*
X92800Y20470D02*
X94949Y18321D01*
X94000Y20967D02*
Y26992D01*
Y20967D02*
X94893Y20074D01*
X92520Y12992D02*
X96344Y9168D01*
X105077D01*
X105812Y9902D01*
X101083Y13287D02*
Y15649D01*
X100731Y16000D02*
X101083Y15649D01*
X92421Y12992D02*
X92520D01*
X105812Y9902D02*
Y12028D01*
X107894Y14110D01*
X91008Y27721D02*
X92800Y25929D01*
X91302Y29690D02*
X94000Y26992D01*
X66980Y31000D02*
X67480Y30500D01*
X55820Y31804D02*
X60045D01*
X62043Y30345D02*
X62698Y31000D01*
X60667Y30345D02*
X62043D01*
X62698Y31000D02*
X66980D01*
X60686Y32445D02*
X61173D01*
X60082Y29759D02*
X60667Y30345D01*
X67480Y30500D02*
X70500D01*
X60045Y31804D02*
X60686Y32445D01*
X55709Y31693D02*
X55820Y31804D01*
X50691Y20416D02*
X51035Y20071D01*
X48031Y22441D02*
X50057Y20416D01*
X50691D01*
X101300Y31300D02*
X104368Y34368D01*
X134500Y6500D02*
X137399D01*
X138349Y5550D01*
X140761D01*
X144738Y9528D01*
X104368Y34368D02*
X115416D01*
X80500Y43303D02*
Y44500D01*
X83441Y47441D01*
X79300Y44997D02*
X82480Y48177D01*
X83441Y47441D02*
X90691D01*
X79300Y43800D02*
Y44997D01*
X78000Y40803D02*
X80500Y43303D01*
X74500Y39000D02*
X79300Y43800D01*
X85099Y48932D02*
X91174D01*
X84124Y49906D02*
X85099Y48932D01*
X82749Y49906D02*
X84124D01*
X82480Y50175D02*
X82749Y49906D01*
X133500Y15000D02*
X133750Y14750D01*
X138750D02*
X139000Y14500D01*
X142500Y15000D02*
X142768Y15268D01*
Y16755D01*
X129134Y11451D02*
X141985D01*
X143908Y9528D02*
X144738D01*
X141985Y11451D02*
X143908Y9528D01*
X140295Y33987D02*
Y34076D01*
X136756Y37615D02*
X140295Y34076D01*
X132299Y37615D02*
X136756D01*
X130000Y35315D02*
X132299Y37615D01*
X132274Y34620D02*
X132490Y34404D01*
X130000Y30920D02*
Y35315D01*
X132490Y32325D02*
Y34404D01*
X132790Y28159D02*
Y32025D01*
X132490Y32325D02*
X132790Y32025D01*
X48031Y22441D02*
Y22539D01*
X55344Y2656D02*
Y4156D01*
X55000Y4500D02*
X55344Y4156D01*
Y2656D02*
X55906Y2094D01*
X76164Y47412D02*
X76464Y47712D01*
X78100Y44297D02*
Y46784D01*
X78543Y47227D01*
X76000Y45311D02*
X76164Y45475D01*
X72803Y46470D02*
X73070D01*
X76464Y47712D02*
Y52448D01*
X73070Y46470D02*
X74606Y48006D01*
X76164Y45475D02*
Y47412D01*
X76003Y42200D02*
X78100Y44297D01*
X78543Y47227D02*
Y52559D01*
X76464Y52448D02*
X76575Y52559D01*
X73700Y42200D02*
X76003D01*
X73600Y42100D02*
X73700Y42200D01*
X69426Y45763D02*
Y46238D01*
X72638Y49449D01*
Y52559D01*
X74606Y48006D02*
Y52559D01*
X145237Y19224D02*
Y19528D01*
X138000Y40000D02*
X145024Y32976D01*
X146602Y29528D02*
X149606D01*
X145024Y31105D02*
X146602Y29528D01*
X145024Y31105D02*
Y32976D01*
X62472Y44469D02*
X62621Y44320D01*
X61362Y45472D02*
X62366Y44469D01*
X62472D01*
X55709Y45472D02*
X61362D01*
X61760Y42178D02*
X62104Y41834D01*
X61760Y42178D02*
Y43046D01*
X55709Y43504D02*
X61302D01*
X61760Y43046D01*
X55709Y37598D02*
X61023D01*
X55906Y2094D02*
X58875D01*
X59469Y1500D01*
X84704D01*
X19887Y53548D02*
X20669Y54331D01*
X55743Y29759D02*
X60082D01*
X55709Y29724D02*
X55743Y29759D01*
X74641Y17260D02*
Y20635D01*
X76483Y15417D02*
X77496D01*
X79921Y12992D01*
X74641Y17260D02*
X76483Y15417D01*
X84704Y1500D02*
X88051Y4847D01*
X74606Y20669D02*
X74641Y20635D01*
X111554Y39635D02*
X111860Y39941D01*
X112910D02*
X114573Y41605D01*
X111860Y39941D02*
X112910D01*
X114573Y41605D02*
Y43412D01*
X114763Y43603D01*
X127131Y28051D02*
X130000Y30920D01*
X121146Y30232D02*
X121182D01*
X119685Y31693D02*
X121146Y30232D01*
X122949Y29610D02*
X124409Y28150D01*
X121182Y30232D02*
X121804Y29610D01*
X122949D01*
X124409Y28051D02*
X127131D01*
X124409D02*
Y28150D01*
X108767Y43693D02*
X108858Y43603D01*
X122539Y36614D02*
Y40961D01*
X122500Y41000D02*
X122539Y40961D01*
X119685Y27953D02*
Y28051D01*
Y31693D02*
Y31791D01*
X88051Y4847D02*
Y5906D01*
X42126Y21260D02*
X45000Y18386D01*
X42028Y21260D02*
X42126D01*
X20768Y4724D02*
Y6732D01*
X18500Y9000D02*
X20768Y6732D01*
X20669Y54331D02*
X20768D01*
X9940Y11811D02*
X9940Y11811D01*
X26279D02*
X26279Y11811D01*
X9940Y47244D02*
X9992D01*
X26279D02*
X26279Y47244D01*
X9940D02*
X9940Y47244D01*
X142768Y16755D02*
X145237Y19224D01*
X143908Y19528D02*
X145237D01*
X149606D01*
X144738Y9528D02*
X149606D01*
X141985Y21451D02*
X143908Y19528D01*
X129134Y21451D02*
X141985D01*
X117618Y36614D02*
X122539D01*
X49606Y51575D02*
Y51673D01*
X115416Y34368D02*
X116061Y33723D01*
X114352Y16975D02*
Y18880D01*
X116061Y20588D01*
Y33723D01*
X87633Y29690D02*
X91302D01*
X87598Y29724D02*
X87633Y29690D01*
X87598Y27756D02*
X87633Y27721D01*
X91008D01*
X79921Y12992D02*
X80020D01*
X33075Y26575D02*
X35219Y28719D01*
Y33250D01*
X29513Y28634D02*
X32634D01*
X33619Y29619D01*
X35219Y33250D02*
X37402Y35433D01*
X37500D01*
X29422Y28543D02*
X29513Y28634D01*
X29428Y26575D02*
X33075D01*
X4000Y6500D02*
Y12907D01*
Y6500D02*
X5776Y4724D01*
X7972D01*
X2400Y5100D02*
X5500Y2000D01*
X2400Y5100D02*
Y13570D01*
X5500Y2000D02*
X14205D01*
X25000Y28500D02*
Y29500D01*
Y27500D02*
Y28500D01*
X17330D02*
X25000D01*
X2400Y13570D02*
X17330Y28500D01*
X14205Y2000D02*
X16929Y4724D01*
X17028D01*
X26012Y30512D02*
X29428D01*
X25000Y27500D02*
X25925Y26575D01*
X25000Y29500D02*
X26012Y30512D01*
X3600Y53100D02*
X4831Y54331D01*
X16929D02*
X17028D01*
X13760Y57500D02*
X16929Y54331D01*
X25925Y26575D02*
X29428D01*
X29421Y32481D02*
X29511Y32391D01*
X29430Y34449D02*
X29430Y34449D01*
X4831Y54331D02*
X7972D01*
D16*
X29429D02*
X33331D01*
X34500Y55500D01*
X64764Y16236D02*
Y20669D01*
Y16236D02*
X67325Y13675D01*
X69101D01*
X69784Y12992D01*
D17*
X40157Y53347D02*
D03*
X43898Y45079D02*
D03*
X36417D02*
D03*
D18*
X48031Y39221D02*
D03*
Y33221D02*
D03*
X129134Y10086D02*
D03*
Y4086D02*
D03*
X129134Y16685D02*
D03*
Y22685D02*
D03*
D19*
X119685Y18602D02*
D03*
Y22343D02*
D03*
X69685Y4035D02*
D03*
Y7776D02*
D03*
X54331Y55413D02*
D03*
Y51673D02*
D03*
X74016Y4035D02*
D03*
Y7776D02*
D03*
X49606Y51673D02*
D03*
Y55413D02*
D03*
X48031Y22539D02*
D03*
Y26280D02*
D03*
X119685Y31791D02*
D03*
Y28051D02*
D03*
D20*
X123917Y12992D02*
D03*
X120177D02*
D03*
X113878Y36614D02*
D03*
X117618D02*
D03*
X42028Y21260D02*
D03*
X38287D02*
D03*
X29429Y54331D02*
D03*
X25689D02*
D03*
X29429Y4724D02*
D03*
X25689D02*
D03*
X17028D02*
D03*
X20768D02*
D03*
X88808Y53678D02*
D03*
X92548D02*
D03*
X38287Y30709D02*
D03*
X42028D02*
D03*
X17028Y54331D02*
D03*
X20768D02*
D03*
X38287Y25984D02*
D03*
X42028D02*
D03*
X38287Y35433D02*
D03*
X42028D02*
D03*
X11713Y54331D02*
D03*
X7972D02*
D03*
X11713Y4724D02*
D03*
X7972D02*
D03*
X96555Y36614D02*
D03*
X100295D02*
D03*
X105217D02*
D03*
X108957D02*
D03*
X122146D02*
D03*
X125886D02*
D03*
X69784Y12992D02*
D03*
X73524D02*
D03*
X97342Y13386D02*
D03*
X101083D02*
D03*
Y19291D02*
D03*
X97342D02*
D03*
X88681Y13386D02*
D03*
X92421D02*
D03*
X101083Y24409D02*
D03*
X97342D02*
D03*
X80020Y13386D02*
D03*
X83760D02*
D03*
D21*
X125985Y50886D02*
D03*
X97637D02*
D03*
D22*
X104920Y43603D02*
D03*
X106889D02*
D03*
X108858D02*
D03*
X110827D02*
D03*
X112794D02*
D03*
X114763D02*
D03*
X116732D02*
D03*
X118701D02*
D03*
D23*
X138826Y55590D02*
D03*
X132826D02*
D03*
D24*
X63634Y4260D02*
D03*
Y11740D02*
D03*
X55366Y8000D02*
D03*
D25*
X110236Y15157D02*
D03*
Y28937D02*
D03*
D26*
X87598Y25787D02*
D03*
Y27756D02*
D03*
Y29724D02*
D03*
Y31693D02*
D03*
Y33661D02*
D03*
Y35630D02*
D03*
Y37598D02*
D03*
Y39567D02*
D03*
Y41535D02*
D03*
Y43504D02*
D03*
Y45472D02*
D03*
Y47441D02*
D03*
X55709D02*
D03*
Y45472D02*
D03*
Y43504D02*
D03*
Y41535D02*
D03*
Y39567D02*
D03*
Y37598D02*
D03*
Y35630D02*
D03*
Y33661D02*
D03*
Y31693D02*
D03*
Y29724D02*
D03*
Y27756D02*
D03*
Y25787D02*
D03*
D27*
X82480Y52559D02*
D03*
X80512D02*
D03*
X78543D02*
D03*
X76575D02*
D03*
X74606D02*
D03*
X72638D02*
D03*
X70669D02*
D03*
X68701D02*
D03*
X66732D02*
D03*
X64764D02*
D03*
X62795D02*
D03*
X60827D02*
D03*
Y20669D02*
D03*
X62795D02*
D03*
X64764D02*
D03*
X66732D02*
D03*
X68701D02*
D03*
X70669D02*
D03*
X72638D02*
D03*
X74606D02*
D03*
X76575D02*
D03*
X78543D02*
D03*
X80512D02*
D03*
X82480D02*
D03*
D28*
X87260Y18363D02*
D03*
X89905Y21007D02*
D03*
D29*
X56822Y19178D02*
D03*
X54178Y21822D02*
D03*
D30*
X48031Y4724D02*
D03*
D31*
Y15748D02*
D03*
D32*
X40157Y14734D02*
D03*
Y5738D02*
D03*
D33*
X119459Y5512D02*
D03*
X110463D02*
D03*
D34*
X149606Y9528D02*
D03*
Y29528D02*
D03*
Y39528D02*
D03*
Y19528D02*
D03*
D35*
Y49528D02*
D03*
D36*
X29428Y16339D02*
D03*
Y17520D02*
D03*
X29428Y19488D02*
D03*
Y20670D02*
D03*
X29428Y22638D02*
D03*
Y26575D02*
D03*
X29422Y28544D02*
D03*
X29428Y30512D02*
D03*
X29421Y32481D02*
D03*
X29430Y34449D02*
D03*
X29412Y38386D02*
D03*
Y39567D02*
D03*
X29422Y41536D02*
D03*
Y42717D02*
D03*
D37*
X29428Y24607D02*
D03*
X29428Y36417D02*
D03*
D64*
X37628Y47138D02*
X39228Y48738D01*
X36417Y46457D02*
X37098Y47138D01*
X39228Y48738D02*
X45534D01*
X37098Y47138D02*
X37628D01*
X36417Y45927D02*
Y46457D01*
X44500Y34086D02*
Y40385D01*
X46179Y42064D01*
X45534Y48738D02*
X46179Y48093D01*
Y42064D02*
Y48093D01*
X43382Y33250D02*
X43664D01*
X44500Y34086D01*
X43022Y32891D02*
X43382Y33250D01*
X39500Y22472D02*
Y22650D01*
X41346Y24497D01*
Y25402D01*
X38969Y21941D02*
X39500Y22472D01*
X38287Y21260D02*
X38386D01*
X38969Y21843D02*
Y21941D01*
X38386Y21260D02*
X38969Y21843D01*
X41346Y25402D02*
X41929Y25984D01*
X42028D01*
X39746Y29170D02*
X40391Y28526D01*
X39746Y29170D02*
Y29348D01*
X40569Y28526D02*
X41376Y27718D01*
X40391Y28526D02*
X40569D01*
X41959Y25984D02*
X42028D01*
X41376Y26567D02*
X41959Y25984D01*
X41376Y26567D02*
Y27718D01*
X43898Y43701D02*
Y45079D01*
X42028Y35433D02*
Y42468D01*
X42379Y42820D02*
X43016D01*
X42028Y42468D02*
X42379Y42820D01*
X43016D02*
X43898Y43701D01*
X40292Y32891D02*
X43022D01*
X132826Y48397D02*
Y55512D01*
X128000Y43571D02*
X132826Y48397D01*
X128000Y40000D02*
Y43571D01*
X128802Y46636D02*
X129447Y47280D01*
X118791Y44874D02*
X126758D01*
X128519Y46636D01*
X128802D01*
X129447Y47280D02*
Y54112D01*
X130226Y54892D01*
X118701Y44784D02*
X118791Y44874D01*
X123591Y13397D02*
X123824D01*
X123414Y13575D02*
Y14874D01*
X122458Y15829D02*
X123414Y14874D01*
X120366Y17921D02*
X122458Y15829D01*
Y15829D02*
Y15829D01*
X123414Y13575D02*
X123591Y13397D01*
X120177Y18012D02*
X120268Y17921D01*
X120366D01*
X124322Y13397D02*
X131897D01*
X133500Y15000D01*
X125886Y36614D02*
X126085Y36813D01*
Y38611D01*
X127206Y39732D01*
X127732D01*
X128000Y40000D01*
X20740Y20578D02*
X21662Y21500D01*
X20457Y20578D02*
X20740D01*
X19500Y20000D02*
X19879D01*
X20457Y20578D01*
X21662Y21500D02*
X25027D01*
X25858Y20669D01*
X29428D01*
X105270Y39500D02*
X106962Y41192D01*
X100000Y41500D02*
X102000Y39500D01*
X105270D01*
X103083Y42066D02*
X103348Y42331D01*
X104830D01*
X104920Y42421D01*
X53000Y15355D02*
X56822Y19178D01*
X53000Y15000D02*
Y15355D01*
X56822Y19178D02*
Y19178D01*
X49000Y8586D02*
Y13891D01*
X49586Y8000D02*
X56744D01*
X48031Y14860D02*
Y15748D01*
X49000Y8586D02*
X49586Y8000D01*
X48031Y14860D02*
X49000Y13891D01*
X118701Y44784D02*
Y46822D01*
X117557Y47966D02*
X118701Y46822D01*
X117557Y47966D02*
Y48453D01*
X118610Y41563D02*
Y43603D01*
X118701D02*
Y44784D01*
X93602Y39567D02*
X95774Y37395D01*
X87598Y39567D02*
X92758D01*
X93089Y39235D02*
X93468D01*
X92758Y39567D02*
X93089Y39235D01*
X97157Y34830D02*
Y36031D01*
X98232Y33268D02*
Y33755D01*
Y33268D02*
X98500Y33000D01*
X96574Y36614D02*
X97157Y36031D01*
Y34830D02*
X98232Y33755D01*
X96457Y36614D02*
X96574D01*
X101291Y23437D02*
Y27791D01*
X87191Y18293D02*
X87260Y18363D01*
X101291Y27791D02*
X101500Y28000D01*
X94621Y42336D02*
X95000D01*
X87598Y41535D02*
X93821D01*
X94621Y42336D01*
X104920Y42421D02*
Y43603D01*
X100000Y41500D02*
Y43500D01*
X89975Y20404D02*
X90013Y20442D01*
X92000Y18300D02*
Y18606D01*
X90164Y20442D02*
X92000Y18606D01*
X87275Y16725D02*
X88000Y16000D01*
X93865D01*
X87191Y17469D02*
Y18293D01*
X90013Y20442D02*
X90164D01*
X93865Y16000D02*
X95265Y14600D01*
X89975Y20404D02*
Y25704D01*
X83079Y13575D02*
Y14421D01*
X80477Y20704D02*
X80546Y20635D01*
Y16954D02*
X83079Y14421D01*
X83661Y12992D02*
X83858D01*
X80546Y16954D02*
Y20635D01*
X95265Y14600D02*
X96030D01*
X97244Y13386D01*
X97342D01*
X97770Y12958D01*
X87191Y17469D02*
X87275Y17385D01*
Y16725D02*
Y17385D01*
X103414Y10842D02*
X104000Y11428D01*
X97770D02*
Y12958D01*
X104000Y11428D02*
Y15291D01*
X98356Y10842D02*
X103414D01*
X97770Y11428D02*
X98356Y10842D01*
X84441Y15543D02*
X87260Y18363D01*
X84441Y13575D02*
Y15543D01*
X101181Y18110D02*
X104000Y15291D01*
X101083Y18110D02*
X101181D01*
X84708Y25787D02*
X85038D01*
X84770Y24897D02*
Y25519D01*
X85038Y25787D02*
X87598D01*
X82480Y20669D02*
Y23465D01*
X83360Y24345D01*
X84218D01*
X84770Y24897D01*
Y25519D02*
X85038Y25787D01*
X61530Y28945D02*
X62622D01*
X60341Y27756D02*
X61530Y28945D01*
X62622D02*
X63278Y29600D01*
X66400D01*
X64503Y26450D02*
X64662Y26609D01*
X61962Y26450D02*
X64503D01*
X61300Y25787D02*
X61962Y26450D01*
X66400Y29600D02*
X68500Y27500D01*
X74500D01*
X74518Y27518D02*
X77482D01*
X74500Y27500D02*
X74518Y27518D01*
X77482D02*
X80477Y24523D01*
X62830Y48860D02*
X64135Y47554D01*
X63746Y4148D02*
X70754D01*
X55709Y25787D02*
X61300D01*
X82898Y39602D02*
X87564D01*
X82127Y40373D02*
X82898Y39602D01*
X82127Y40373D02*
Y41425D01*
X81859Y41693D02*
X82127Y41425D01*
X101083Y23228D02*
X101291Y23437D01*
X95774Y37297D02*
Y37395D01*
Y37297D02*
X96457Y36614D01*
X60827Y52559D02*
Y57148D01*
X61178Y57500D01*
X91000D01*
X92548Y55952D01*
Y53678D02*
Y55952D01*
Y53678D02*
X92812Y53414D01*
Y50264D02*
Y53414D01*
Y50264D02*
X93075Y50000D01*
X85768Y51768D02*
X86799D01*
X85500Y51500D02*
X85768Y51768D01*
X86799D02*
X88709Y53678D01*
X133750Y14750D02*
X138750D01*
X45000Y21500D02*
Y29790D01*
X44414Y30376D02*
X45000Y29790D01*
X42360Y30376D02*
X44414D01*
X42028Y30709D02*
X42360Y30376D01*
X87564Y39602D02*
X87598Y39567D01*
X80677Y27872D02*
X81325D01*
X80477Y20704D02*
Y24523D01*
X80409Y28140D02*
X80677Y27872D01*
X81325D02*
X81349Y27849D01*
X81651D01*
X63401Y46969D02*
X63550D01*
X64135Y47554D01*
X65363D01*
X65745Y47172D01*
X62830Y48860D02*
Y52524D01*
X62795Y52559D02*
X62830Y52524D01*
X68675Y52534D02*
X68701Y52559D01*
X68675Y48675D02*
Y52534D01*
X67172Y47172D02*
X68675Y48675D01*
X65745Y47172D02*
X67172D01*
X44500Y54500D02*
X44879D01*
X40839D02*
X44500D01*
X87598Y25787D02*
X89891D01*
X81651Y27849D02*
X83701Y25799D01*
X19500Y38000D02*
X23006D01*
X23077Y37929D01*
X25543D01*
X26000Y38386D01*
X29412D01*
X54374Y55457D02*
X57957D01*
X54331Y55413D02*
X54374Y55457D01*
X57957D02*
X58000Y55500D01*
X77621Y7000D02*
X77676D01*
X79655Y10089D02*
X83051Y6693D01*
X76526Y10089D02*
X79655D01*
X74128Y7888D02*
X76733D01*
X73622Y12992D02*
X76526Y10089D01*
X73524Y12992D02*
X73622D01*
X83051Y5906D02*
Y6693D01*
X76733Y7888D02*
X77621Y7000D01*
X83051Y6693D02*
Y12284D01*
Y5118D02*
Y5906D01*
X76306Y2914D02*
X80847D01*
X83051Y5118D01*
X74598Y3354D02*
X75865D01*
X74016Y3937D02*
X74598Y3354D01*
X75865D02*
X76306Y2914D01*
X74016Y3937D02*
Y4035D01*
X70866D02*
X74016D01*
X55709Y27756D02*
X60341D01*
X74016Y7776D02*
X74128Y7888D01*
X66943Y10057D02*
X72791D01*
X63634Y11740D02*
X64315Y11059D01*
X65941D02*
X66943Y10057D01*
X64315Y11059D02*
X65941D01*
X73433Y8358D02*
Y9414D01*
X72791Y10057D02*
X73433Y9414D01*
Y8358D02*
X74016Y7776D01*
X56520D02*
X69685D01*
X70754Y4148D02*
X70866Y4035D01*
X63634Y4260D02*
X63746Y4148D01*
X56520Y7776D02*
X56744Y8000D01*
X83858Y12992D02*
X88681D01*
X114297Y37033D02*
Y39297D01*
X113878Y36614D02*
X114297Y37033D01*
Y39297D02*
X115000Y40000D01*
X108957Y36614D02*
Y39197D01*
X106962Y41192D02*
X108957Y39197D01*
X117047Y40000D02*
X118610Y41563D01*
X115000Y40000D02*
X117047D01*
X45000Y21500D02*
X45599Y20901D01*
X46390Y20008D02*
X46492D01*
X45599Y20799D02*
Y20901D01*
X47923Y15857D02*
Y18577D01*
X45599Y20799D02*
X46390Y20008D01*
X47923Y15857D02*
X48031Y15748D01*
X46492Y20008D02*
X47923Y18577D01*
X40157Y53819D02*
X40839Y54500D01*
X44879D02*
X45792Y55413D01*
X40157Y53543D02*
Y53819D01*
X45792Y55413D02*
X49606D01*
X83701Y25799D02*
X84696D01*
X84708Y25787D01*
X29764Y4390D02*
X32110D01*
X33500Y3000D01*
X29429Y4724D02*
X29764Y4390D01*
X54178Y21822D02*
Y21822D01*
X55709Y23353D01*
Y25787D01*
X123917Y12992D02*
X124322Y13397D01*
X88709Y53678D02*
X88808D01*
X106962Y41192D02*
Y43530D01*
X106889Y43603D02*
X106962Y43530D01*
X60743Y51673D02*
X60827Y51757D01*
Y52559D01*
X54331Y51673D02*
X60743D01*
X52970Y53132D02*
X54331Y51772D01*
X50967Y53954D02*
X51145D01*
X49606Y55315D02*
Y55413D01*
X54331Y51673D02*
Y51772D01*
X51967Y53132D02*
X52970D01*
X51145Y53954D02*
X51967Y53132D01*
X49606Y55315D02*
X50967Y53954D01*
X89891Y25787D02*
X89975Y25704D01*
X101083Y18110D02*
Y23228D01*
X83079Y12409D02*
X83661Y12992D01*
X83079Y12311D02*
Y12409D01*
X83051Y12284D02*
X83079Y12311D01*
X83858Y12992D02*
X84441Y13575D01*
X83079D02*
X83661Y12992D01*
X38287Y30709D02*
X38386D01*
X39746Y29348D01*
X48031Y33510D02*
X50700Y30841D01*
Y29390D02*
Y30841D01*
Y29390D02*
X52299Y27790D01*
X55674D02*
X55709Y27756D01*
X52299Y27790D02*
X55674D01*
X38969Y31291D02*
Y31567D01*
X40292Y32891D01*
X38386Y30709D02*
X38969Y31291D01*
X29860Y5057D02*
Y5156D01*
X29429Y4724D02*
X29528D01*
X38280Y12856D02*
X40157Y14734D01*
X29528Y4724D02*
X29860Y5057D01*
X37561Y12856D02*
X38280D01*
X29860Y5156D02*
X37561Y12856D01*
X33500Y15758D02*
X34917Y14341D01*
X30440Y20500D02*
X33442D01*
X33500Y20442D01*
Y15758D02*
Y20442D01*
X34917Y14341D02*
X39045D01*
X29412Y38386D02*
Y39567D01*
D65*
X9992Y47244D02*
X26279D01*
X98582Y4898D02*
X99399D01*
X109451Y4500D02*
X110463Y5512D01*
X98051Y5429D02*
Y5906D01*
X99399Y4898D02*
X99798Y4500D01*
X98051Y5429D02*
X98582Y4898D01*
X99798Y4500D02*
X109451D01*
X27749Y42717D02*
X29422D01*
X27755Y16339D02*
X29428D01*
X9940Y11811D02*
X26279D01*
X25689Y47834D02*
X26279Y47244D01*
X9992D02*
X11713Y48964D01*
X27665Y16248D02*
X27755Y16339D01*
X26279Y11811D02*
X27665Y13197D01*
Y16248D01*
X27659Y42807D02*
X27749Y42717D01*
X26279Y47244D02*
X27659Y45864D01*
Y42807D02*
Y45864D01*
X25689Y47834D02*
Y54331D01*
Y11221D02*
X26279Y11811D01*
X25689Y4724D02*
Y11221D01*
X11713Y48964D02*
Y54331D01*
Y4724D02*
Y10090D01*
X9992Y11811D02*
X11713Y10090D01*
X9940Y11811D02*
X9992D01*
D66*
X119459Y5512D02*
X120447Y6500D01*
X125000D01*
X34500Y24500D02*
X35984Y25984D01*
X38287D01*
X47018Y5738D02*
X48031Y4724D01*
X40157Y5738D02*
X47018D01*
D67*
X98051Y5906D02*
D03*
X93051D02*
D03*
X88051D02*
D03*
D68*
X83051D02*
D03*
D69*
X26279Y47245D02*
D03*
X26279Y11811D02*
D03*
D70*
X9940Y11811D02*
D03*
X9940Y47244D02*
D03*
D71*
X24310Y18149D02*
D03*
Y40905D02*
D03*
D72*
X49679Y47471D02*
D03*
X48000Y29521D02*
D03*
X19000Y50044D02*
D03*
X49965Y43500D02*
D03*
X119000Y55900D02*
D03*
X133000Y44500D02*
D03*
X146000Y45320D02*
D03*
X140100Y43500D02*
D03*
X109991Y52963D02*
D03*
X112204Y49704D02*
D03*
X103000Y52000D02*
D03*
X106041Y53521D02*
D03*
X103992Y47548D02*
D03*
X125000Y6500D02*
D03*
X5500Y29500D02*
D03*
Y24000D02*
D03*
X128000Y40000D02*
D03*
X81201Y33818D02*
D03*
X78500Y36000D02*
D03*
X81649Y37283D02*
D03*
X74500Y36400D02*
D03*
X103083Y42066D02*
D03*
X53000Y15000D02*
D03*
X58200D02*
D03*
X51915Y11192D02*
D03*
X46000Y11000D02*
D03*
X121422Y47967D02*
D03*
X116443Y51665D02*
D03*
X117557Y48453D02*
D03*
X93468Y39235D02*
D03*
X98500Y33000D02*
D03*
X101500Y28000D02*
D03*
X95000Y42336D02*
D03*
X100000Y43500D02*
D03*
X92000Y18300D02*
D03*
X61173Y32445D02*
D03*
X64662Y26609D02*
D03*
X70500Y30500D02*
D03*
X74500Y27500D02*
D03*
X51035Y20071D02*
D03*
X134500Y6500D02*
D03*
X93075Y50000D02*
D03*
X85500Y51500D02*
D03*
X139000Y14500D02*
D03*
X142500Y15000D02*
D03*
X140295Y33987D02*
D03*
X132274Y34620D02*
D03*
X55000Y4500D02*
D03*
X72803Y46470D02*
D03*
X76000Y45311D02*
D03*
X81859Y41693D02*
D03*
X73500Y42200D02*
D03*
X69426Y45763D02*
D03*
X80409Y28140D02*
D03*
X133500Y15000D02*
D03*
X63401Y46969D02*
D03*
X62104Y41834D02*
D03*
X34500Y55500D02*
D03*
X19500Y38000D02*
D03*
Y20000D02*
D03*
X58000Y55500D02*
D03*
X77676Y7000D02*
D03*
X111554Y39635D02*
D03*
X122539Y40961D02*
D03*
X44500Y54500D02*
D03*
X33500Y3000D02*
D03*
X18500Y9000D02*
D03*
X34500Y24500D02*
D03*
M02*
